<?xml version="1.0" standalone="no"?>
<!DOCTYPE svg PUBLIC "-//W3C//DTD SVG 20010904//EN"
 "http://www.w3.org/TR/2001/REC-SVG-20010904/DTD/svg10.dtd">
<svg version="1.0" xmlns="http://www.w3.org/2000/svg"
 width="224.000000pt" height="224.000000pt" viewBox="0 0 224.000000 224.000000"
 preserveAspectRatio="xMidYMid meet">

<g transform="translate(0.000000,224.000000) scale(0.100000,-0.100000)"
fill="#000000" stroke="none">
<path d="M415 2182 c18 -74 30 -105 47 -120 8 -6 49 -14 92 -18 77 -6 79 -5
109 24 18 16 61 44 97 62 36 18 85 43 110 56 25 13 54 24 66 24 11 0 29 7 40
15 17 13 -15 14 -278 15 l-296 0 13 -58z"/>
<path d="M1120 2231 c0 -9 31 -22 96 -40 23 -6 59 -23 80 -37 21 -15 57 -35
79 -44 22 -9 55 -31 73 -48 27 -25 39 -30 75 -27 23 1 57 3 74 4 40 1 58 26
78 107 9 32 18 67 21 77 5 16 -13 17 -285 17 -161 0 -291 -4 -291 -9z"/>
<path d="M844 1726 c-38 -38 -46 -92 -18 -120 32 -33 143 -6 160 39 7 18 -12
72 -34 98 -25 28 -70 21 -108 -17z"/>
<path d="M1137 1738 c-49 -46 -46 -94 7 -128 45 -27 99 -26 126 2 36 39 24 85
-33 121 -50 33 -69 34 -100 5z m65 -60 c-9 -9 -15 -9 -24 0 -9 9 -7 12 12 12
19 0 21 -3 12 -12z"/>
<path d="M953 1457 c-7 -7 -22 -21 -34 -32 -67 -63 -72 -142 -17 -249 29 -57
30 -60 12 -73 -10 -8 -36 -19 -57 -25 -21 -6 -48 -24 -61 -39 -13 -15 -32 -29
-42 -31 -17 -3 -19 -12 -16 -113 3 -76 8 -114 17 -124 16 -17 12 -24 45 78 11
35 20 70 20 76 0 7 7 18 15 25 22 18 45 -5 45 -45 0 -24 9 -42 33 -67 19 -18
38 -42 44 -52 9 -16 25 -21 79 -24 l68 -5 48 53 c32 35 52 68 59 97 7 24 15
46 20 48 13 8 49 -37 49 -61 0 -30 37 -114 49 -114 14 0 19 28 24 131 l5 87
-29 6 c-19 4 -30 13 -35 30 -6 26 -26 36 -89 45 -51 8 -58 37 -20 91 34 50 49
147 30 194 -8 18 -32 49 -54 69 -40 36 -43 37 -119 37 -46 -1 -82 -6 -89 -13z
m137 -37 c0 -10 -8 -12 -57 -14 -46 -2 -35 19 12 22 25 1 45 -2 45 -8z"/>
<path d="M1466 1084 c-3 -9 -6 -38 -6 -66 0 -42 -5 -56 -30 -85 -30 -33 -30
-35 -24 -121 3 -48 11 -105 16 -127 6 -22 13 -64 15 -94 3 -30 14 -68 24 -85
10 -17 19 -36 19 -43 0 -6 -24 -47 -52 -90 -51 -76 -53 -80 -50 -141 1 -45 10
-82 31 -125 15 -34 31 -72 35 -85 l7 -22 395 0 394 0 0 221 c0 220 -5 259 -35
259 -8 0 -15 6 -15 13 0 7 -39 48 -86 92 -48 44 -98 90 -111 103 -13 12 -26
22 -28 22 -3 0 -14 8 -24 18 -10 9 -49 40 -85 67 -36 28 -66 55 -66 61 0 16
-24 24 -72 24 -37 0 -47 6 -102 63 -34 34 -76 83 -93 110 -34 50 -47 57 -57
31z"/>
<path d="M545 1025 c-62 -85 -108 -125 -144 -125 -43 0 -88 -19 -104 -44 -8
-12 -43 -40 -78 -63 -35 -23 -73 -50 -84 -60 -47 -43 -105 -83 -122 -83 -14 0
-15 -2 -4 -9 9 -6 10 -11 2 -15 -8 -5 -11 -101 -11 -317 l0 -309 320 0 c315 0
320 0 320 20 0 11 14 48 31 81 17 34 35 87 40 119 10 63 5 76 -64 180 -22 32
-28 50 -23 74 3 17 10 64 16 105 6 40 17 85 24 100 7 14 16 70 19 124 l7 98
-35 51 c-27 39 -35 60 -35 94 0 62 -18 57 -75 -21z"/>
<path d="M2200 983 c-8 -2 -21 -7 -29 -9 -10 -3 -6 -9 13 -19 41 -22 56 -19
56 10 0 24 -9 29 -40 18z"/>
<path d="M2165 853 c-68 -15 -85 -25 -85 -49 0 -22 4 -24 53 -24 72 0 107 17
107 53 0 23 -4 27 -27 26 -16 -1 -37 -3 -48 -6z"/>
<path d="M0 821 c0 -15 6 -21 21 -21 14 0 19 5 17 17 -5 26 -38 29 -38 4z"/>
<path d="M2216 594 c-10 -25 -7 -34 9 -34 9 0 15 9 15 25 0 28 -15 34 -24 9z"/>
<path d="M2232 520 c0 -14 2 -19 5 -12 2 6 2 18 0 25 -3 6 -5 1 -5 -13z"/>
<path d="M694 465 c-3 -8 4 -30 16 -50 54 -88 154 -123 273 -96 24 6 73 4 138
-4 l101 -13 60 31 c64 34 108 85 108 124 0 28 -21 30 -37 4 -18 -28 -108 -40
-307 -40 -186 0 -254 9 -295 41 -29 22 -50 23 -57 3z"/>
</g>
</svg>
