<?xml version="1.0" standalone="no"?>
<!DOCTYPE svg PUBLIC "-//W3C//DTD SVG 20010904//EN"
 "http://www.w3.org/TR/2001/REC-SVG-20010904/DTD/svg10.dtd">
<svg version="1.0" xmlns="http://www.w3.org/2000/svg"
 width="640.000000pt" height="480.000000pt" viewBox="0 0 640.000000 480.000000"
 preserveAspectRatio="xMidYMid meet">

<g transform="translate(0.000000,480.000000) scale(0.100000,-0.100000)"
fill="#000000" stroke="none">
<path d="M0 2400 l0 -2400 3200 0 3200 0 0 2400 0 2400 -3200 0 -3200 0 0
-2400z m3748 1721 c31 -15 146 -51 164 -51 17 0 127 -49 138 -61 3 -3 34 -21
70 -41 87 -49 158 -113 180 -162 27 -63 41 -168 34 -242 -6 -58 -5 -69 11 -80
13 -10 16 -21 12 -42 -11 -55 84 -183 111 -149 5 7 12 24 15 38 11 45 50 93
82 99 50 11 92 37 104 67 7 15 31 40 54 55 38 24 134 98 197 152 77 64 118 95
124 89 11 -11 7 -1673 -4 -1673 -5 0 -10 4 -10 9 0 5 -11 19 -25 32 -13 13
-25 32 -25 41 0 9 -6 23 -14 30 -7 8 -17 25 -21 38 -7 22 -27 52 -142 218 -37
52 -52 107 -34 125 17 17 13 52 -12 115 -24 57 -60 117 -97 161 -19 22 -21 47
-6 82 4 8 -5 40 -19 72 -14 32 -25 64 -25 73 0 8 -7 28 -15 44 -20 38 -52 40
-65 4 -8 -20 -6 -32 10 -55 26 -35 32 -111 12 -140 -8 -11 -14 -39 -14 -62 1
-59 -17 -123 -39 -143 -17 -15 -25 -15 -79 -4 -37 8 -60 18 -60 26 0 19 -33
34 -74 34 -25 0 -36 4 -36 15 0 8 -6 15 -14 15 -17 0 -76 32 -76 42 0 3 -21
16 -46 28 -36 18 -55 21 -93 16 -44 -6 -121 13 -121 30 0 3 21 5 48 3 26 -1
60 4 75 10 16 6 35 11 43 11 13 0 19 21 16 60 -4 70 -13 124 -23 136 -6 8 -9
14 -5 14 17 0 -89 91 -112 95 -15 3 -56 15 -92 25 -36 11 -87 22 -115 25 -167
19 -229 23 -400 24 -131 1 -205 6 -237 16 -26 7 -55 11 -65 9 -24 -7 -56 27
-47 50 4 9 20 20 35 23 16 3 32 10 35 14 3 5 13 9 23 9 10 0 24 7 31 15 16 19
64 41 110 51 31 6 33 8 13 15 -16 6 -21 15 -20 43 1 24 6 36 15 36 10 0 13 7
9 21 -3 11 1 32 8 47 38 78 39 83 27 103 -26 41 15 80 68 66 27 -7 50 20 24
29 -60 18 -68 41 -17 49 69 11 85 16 78 23 -4 4 -10 7 -13 7 -4 1 -17 6 -29
13 -15 8 -23 9 -23 2 0 -5 -7 -10 -16 -10 -8 0 -12 5 -9 10 8 13 -11 13 -36 0
-11 -6 -19 -7 -19 -2 0 6 -10 13 -22 16 -22 6 -22 7 -5 20 10 8 27 12 37 9 11
-3 20 -1 20 4 0 5 26 9 58 9 31 -1 103 2 160 6 66 5 101 4 97 -2 -3 -6 2 -10
12 -10 21 0 56 20 35 20 -10 0 -10 4 0 19 7 11 15 18 18 16 3 -2 12 0 20 6 18
11 17 11 38 0z m-415 -1390 c-4 -15 14 -14 20 2 3 6 10 -2 16 -19 10 -26 16
-30 41 -26 17 2 30 9 30 14 0 5 6 8 13 5 6 -2 25 0 41 4 19 6 34 5 43 -2 7 -6
24 -8 39 -5 15 4 23 3 20 -3 -11 -17 44 -43 78 -37 24 5 40 1 57 -13 25 -19
30 -21 52 -21 7 0 18 -15 26 -32 11 -30 13 -31 21 -13 4 11 4 25 -1 31 -10 12
21 41 48 46 16 3 18 -5 18 -62 1 -61 2 -65 25 -68 14 -2 29 -8 34 -13 14 -13
64 -11 73 4 4 6 17 17 28 23 17 10 20 21 18 72 l-3 59 51 2 c37 0 58 -5 76
-19 14 -11 21 -20 15 -20 -5 0 -13 -11 -16 -25 -4 -14 -11 -23 -16 -20 -6 3
-10 4 -10 1 0 -2 -3 -12 -7 -22 -5 -13 -3 -16 9 -12 9 4 21 1 28 -5 10 -9 11
-9 6 0 -4 7 -2 21 3 30 9 15 10 12 11 -17 0 -28 8 -42 35 -65 19 -17 35 -34
35 -38 0 -12 27 -37 39 -37 28 0 9 -111 -23 -133 -6 -4 -48 -7 -93 -6 -65 1
-87 6 -104 20 -12 11 -26 19 -31 19 -4 0 -8 6 -8 13 0 7 -19 18 -42 25 -56 17
-107 60 -87 73 8 5 9 9 3 9 -6 0 -17 -7 -24 -15 -7 -8 -20 -15 -29 -15 -14 0
-16 -16 -16 -117 l0 -117 -65 -3 c-86 -3 -118 10 -126 52 -3 18 -1 43 6 55 13
25 67 50 105 50 20 0 26 4 23 18 -4 23 -60 29 -78 8 -15 -19 -47 -21 -53 -3
-7 21 15 56 44 69 22 10 27 18 23 32 -5 14 -3 16 7 11 9 -5 11 -5 4 2 -5 5
-37 16 -70 23 -33 8 -66 20 -74 28 -10 10 -16 11 -21 2 -6 -9 -13 -9 -30 0
-29 15 -82 5 -105 -20 -24 -27 -88 -27 -122 0 -28 22 -112 50 -150 50 -19 0
-23 5 -23 30 0 17 10 39 24 53 17 17 21 28 14 35 -7 7 -3 12 11 17 12 3 19 11
16 16 -4 5 5 9 19 9 14 0 26 5 26 11 0 5 4 8 9 4 5 -3 13 -1 16 5 9 14 31 6
28 -9z m597 -158 c0 -7 -4 -13 -10 -13 -5 0 -10 12 -10 28 0 21 2 24 10 12 5
-8 10 -21 10 -27z m-1293 -167 c14 -13 25 -39 29 -69 l7 -47 -82 0 c-87 0 -95
-6 -65 -48 17 -24 49 -28 89 -10 20 9 28 9 38 -1 20 -20 -29 -51 -81 -51 -83
0 -130 62 -117 154 14 93 118 135 182 72z m240 12 c10 -8 20 -8 39 1 35 16 86
14 112 -5 18 -12 22 -25 23 -67 1 -78 14 -146 23 -124 6 13 20 17 56 17 27 0
52 5 56 11 4 7 22 9 48 5 22 -3 56 -8 74 -11 22 -3 32 0 32 9 0 14 -41 36 -66
36 -22 0 -64 46 -64 70 0 12 11 32 25 45 35 35 112 35 145 1 23 -26 22 -56 -3
-56 -8 0 -22 9 -32 20 -21 24 -58 26 -75 5 -16 -19 0 -41 38 -49 61 -15 81
-28 92 -62 7 -19 18 -34 26 -34 11 0 14 20 14 100 l0 100 25 0 c25 0 25 0 25
-93 0 -101 7 -117 50 -117 43 0 50 16 50 117 0 93 0 93 25 93 l26 0 -3 -122
-3 -123 -35 -1 c-116 -4 -147 -7 -162 -15 -24 -13 -137 -18 -173 -8 -35 10
-118 20 -195 22 l-55 2 -5 93 c-5 94 -13 111 -51 112 -37 0 -49 -23 -54 -109
-5 -83 -16 -115 -34 -96 -5 6 -11 50 -13 98 -3 96 -13 112 -58 101 -14 -3 -27
-8 -30 -11 -3 -2 -7 -46 -10 -96 -5 -84 -7 -92 -25 -92 -19 0 -20 8 -23 121
l-3 121 77 1 c45 1 83 -3 91 -10z m1628 -138 c3 -5 24 -10 46 -10 32 0 42 -5
50 -24 8 -17 8 -29 -1 -45 -6 -12 -9 -30 -5 -40 8 -25 -17 -43 -49 -35 -26 6
-37 34 -14 34 9 0 9 3 0 12 -7 7 -12 23 -12 36 0 15 -4 21 -12 16 -7 -5 -9 -2
-5 9 3 9 0 18 -9 21 -8 3 -14 12 -14 21 0 17 16 20 25 5z m-455 -207 c0 -5 33
-8 73 -8 39 0 76 -2 82 -5 11 -5 9 -4 135 -19 52 -6 128 -11 168 -11 67 0 73
2 83 24 11 23 11 24 30 5 11 -11 24 -17 29 -14 16 10 22 -17 24 -112 2 -79 5
-97 19 -105 14 -7 16 -13 7 -23 -7 -8 -10 -20 -8 -27 3 -7 -2 -19 -9 -27 -18
-18 -13 -45 11 -49 24 -5 53 -35 48 -50 -2 -7 1 -12 7 -12 7 0 9 -11 7 -24 -4
-20 1 -25 27 -30 19 -4 33 -2 35 4 2 5 8 10 14 10 6 0 7 -15 3 -40 -6 -36 -5
-40 14 -40 12 0 21 6 21 13 0 9 2 9 8 0 13 -20 98 -10 132 15 38 29 40 10 6
-55 -14 -25 -22 -51 -19 -59 5 -12 -12 -17 -43 -13 -4 0 -10 -5 -14 -11 -11
-18 -30 -2 -30 25 0 12 -7 25 -15 29 -8 3 -15 0 -15 -7 0 -19 -37 -39 -43 -24
-3 7 -6 -2 -6 -19 -1 -16 3 -34 9 -40 5 -5 14 -30 19 -54 26 -120 33 -139 52
-145 10 -4 19 -15 19 -25 0 -18 6 -22 65 -35 44 -10 55 -23 55 -66 0 -45 -4
-46 -45 -19 -36 24 -75 26 -75 4 0 -16 29 -58 87 -128 l33 -40 0 -133 0 -133
-477 0 c-476 1 -478 1 -453 20 14 11 32 27 41 35 9 8 30 15 47 15 18 0 32 5
32 11 0 5 5 7 10 4 6 -3 10 0 10 8 0 7 8 22 18 33 9 10 18 27 20 38 5 26 52
96 65 96 6 0 34 24 62 53 35 38 57 53 71 51 23 -4 62 30 46 40 -9 5 6 80 21
104 5 6 17 12 27 12 10 0 25 9 33 20 8 11 17 17 20 13 4 -3 7 1 7 10 0 9 -6
17 -12 17 -7 0 -5 5 5 11 9 5 17 18 17 29 0 10 9 22 20 25 20 6 29 45 10 45
-5 0 -10 7 -10 15 0 8 -12 22 -26 31 -19 13 -24 23 -20 40 3 13 1 26 -4 29 -8
5 -8 11 -1 19 20 24 19 84 -1 105 -19 21 -19 52 1 89 6 12 11 30 11 41 0 12 5
21 12 21 9 0 9 3 1 11 -6 6 -9 18 -6 25 8 21 -20 17 -73 -11 -26 -14 -52 -25
-59 -25 -6 0 -18 -11 -25 -25 -7 -14 -19 -25 -26 -25 -7 0 -22 -13 -33 -29
-13 -19 -27 -28 -39 -25 -9 3 -35 -4 -57 -16 -21 -11 -56 -20 -76 -20 -24 0
-39 -5 -43 -16 -3 -8 -11 -12 -18 -8 -6 4 -27 7 -46 6 l-34 -1 26 24 c32 29
33 43 4 54 -18 6 -19 9 -5 14 27 10 20 28 -8 21 -25 -6 -36 10 -12 19 6 2 0 3
-15 1 -15 -2 -28 1 -30 6 -4 13 -120 28 -144 19 -29 -11 -76 -11 -69 1 3 6 -3
10 -15 10 -12 0 -18 -4 -15 -10 3 -5 2 -10 -4 -10 -6 0 -15 9 -21 20 -14 26
-30 26 -30 0 0 -50 -119 -75 -171 -35 -14 10 -32 35 -41 55 l-16 35 -1 -31
c-3 -82 -142 -106 -204 -36 -43 48 10 81 58 36 29 -27 60 -29 60 -4 0 22 -64
49 -112 47 -42 -1 -42 -1 -49 -47 -8 -55 -21 -73 -48 -66 -12 3 -37 1 -57 -3
-42 -10 -92 7 -103 34 -3 9 -6 32 -6 51 0 19 -4 34 -10 34 -5 0 -10 -7 -10
-15 0 -59 -68 -110 -137 -102 -56 6 -80 28 -103 98 l-19 54 0 -66 c-1 -72 -15
-95 -49 -85 -16 6 -20 20 -26 99 -4 50 -11 96 -15 100 -4 4 -20 3 -34 -2 -26
-10 -27 -12 -27 -100 0 -82 -2 -90 -21 -96 -12 -4 -25 -3 -30 2 -5 5 -8 84 -7
179 l3 169 25 0 c23 0 25 -4 28 -48 l3 -48 37 6 c20 3 47 8 59 11 12 2 24 -2
27 -9 3 -6 4 -3 3 8 -2 16 4 20 28 20 24 0 30 -4 30 -22 1 -28 2 -28 73 -14
46 9 64 9 96 -2 33 -12 43 -12 65 -1 14 8 34 14 43 14 37 0 108 25 108 37 0 8
7 16 15 19 8 4 15 12 15 19 0 15 25 27 35 17 13 -13 35 -74 30 -82 -3 -5 -1
-12 5 -15 6 -4 8 -15 5 -26 -4 -11 -2 -19 4 -19 6 0 11 5 11 11 0 15 63 39
103 39 52 0 83 -20 94 -60 l9 -35 24 42 c14 23 32 44 40 47 9 2 6 4 -7 5 l-22
1 23 25 c13 14 30 23 37 20 8 -3 18 4 24 17 6 13 16 22 22 21 6 -1 9 6 6 17
-6 24 21 38 41 21 7 -6 15 -9 18 -6 3 3 23 6 44 7 21 0 46 4 55 9 9 4 29 10
44 13 16 3 33 10 39 16 11 11 106 14 106 3z m660 -353 c0 -5 -4 -10 -10 -10
-5 0 -10 5 -10 10 0 6 5 10 10 10 6 0 10 -4 10 -10z m40 -30 c0 -5 -5 -10 -11
-10 -5 0 -7 5 -4 10 3 6 8 10 11 10 2 0 4 -4 4 -10z m-153 -162 c-3 -8 -6 -5
-6 6 -1 11 2 17 5 13 3 -3 4 -12 1 -19z m-913 -74 c4 -11 0 -11 -19 -2 -14 6
-25 15 -25 19 0 12 38 -2 44 -17z m-434 -158 c0 -96 -4 -177 -9 -180 -5 -4
-16 -3 -25 0 -12 5 -16 32 -18 163 -2 87 -2 166 0 175 2 9 13 16 28 16 l24 0
0 -174z m-140 59 c31 -16 48 -51 33 -66 -6 -6 -20 -2 -36 11 -34 27 -82 24
-82 -5 0 -14 14 -24 55 -40 63 -24 87 -57 71 -98 -20 -53 -131 -60 -170 -10
-33 41 -2 62 34 23 21 -24 67 -26 85 -5 19 23 5 43 -42 55 -61 16 -88 36 -88
64 0 39 11 57 44 72 40 17 61 17 96 -1z m363 -6 c28 -22 54 -88 44 -113 -5
-13 -22 -16 -82 -16 -82 0 -90 -7 -53 -47 25 -27 54 -29 87 -7 26 18 48 6 38
-20 -17 -43 -123 -45 -165 -3 -54 54 -36 183 30 212 46 20 71 18 101 -6z m239
-6 c22 -20 43 -85 35 -107 -5 -13 -22 -16 -82 -16 -82 0 -94 -11 -55 -50 24
-24 45 -25 84 -5 30 16 46 12 46 -11 0 -22 -68 -47 -109 -40 -67 11 -103 76
-87 159 16 83 110 122 168 70z m245 -9 c28 -30 39 -101 23 -148 -17 -53 -54
-78 -110 -74 l-45 3 -1 -35 c-2 -58 -3 -60 -24 -60 -19 0 -20 7 -20 171 l0
171 33 -5 c17 -3 41 -2 52 3 29 12 67 1 92 -26z m-1417 6 c22 -22 33 -57 28
-91 -3 -23 -7 -24 -68 -21 -85 3 -102 -7 -74 -45 21 -28 42 -32 109 -21 35 5
31 -16 -6 -36 -65 -35 -138 -3 -158 71 -14 49 4 117 37 143 34 27 105 27 132
0z m110 -73 c0 -98 7 -117 45 -117 44 1 54 21 57 116 3 81 5 89 23 89 19 0 20
-8 23 -117 l3 -118 -43 -1 c-24 0 -58 -1 -76 -1 -56 -2 -71 23 -73 122 -2 118
-2 120 21 120 19 0 20 -7 20 -93z m654 -353 c3 -9 6 -83 6 -165 l0 -149 -89 0
c-111 0 -116 5 -116 107 0 70 2 76 29 100 26 22 36 25 78 20 l48 -6 0 54 c0
47 3 55 19 55 10 0 22 -7 25 -16z m432 -19 c38 -25 37 -98 -2 -140 -13 -14
-31 -40 -40 -56 -9 -19 -21 -29 -32 -27 -29 6 -17 57 23 98 36 37 44 67 23 88
-19 19 -66 15 -78 -8 -11 -21 -35 -27 -45 -11 -10 17 17 60 44 70 31 12 77 6
107 -14z m-963 -85 c49 -38 59 -129 22 -186 -14 -22 -22 -24 -90 -24 -65 0
-76 3 -89 22 -40 57 -22 163 32 193 39 21 95 19 125 -5z m132 9 c6 1 29 4 52
7 62 9 83 -16 84 -103 0 -38 2 -80 3 -95 1 -23 -2 -28 -21 -28 -22 0 -23 4
-23 76 0 91 -10 114 -50 114 -44 0 -58 -30 -56 -117 1 -69 0 -73 -21 -73 -22
0 -23 3 -23 108 0 60 3 112 7 116 4 3 14 4 22 0 9 -3 21 -6 26 -5z m624 -10
c20 -19 35 -60 36 -99 0 -12 -16 -16 -77 -18 -64 -2 -78 -6 -78 -19 0 -43 58
-67 99 -41 22 13 55 4 49 -15 -3 -8 -32 -13 -86 -15 -79 -3 -82 -2 -99 25 -34
51 -15 151 36 190 26 20 94 16 120 -8z m161 -194 c0 -9 -9 -15 -25 -15 -24 0
-32 10 -18 23 12 13 43 7 43 -8z"/>
<path d="M3527 3823 c-13 -20 6 -49 52 -81 35 -24 55 -47 75 -90 15 -31 31
-64 35 -72 4 -8 22 -23 40 -32 18 -9 42 -26 53 -37 34 -37 64 -51 129 -62 35
-6 71 -16 79 -24 17 -16 47 -14 105 5 22 7 45 14 52 16 7 2 15 19 19 39 7 41
12 44 77 66 l49 15 -41 27 c-22 15 -43 27 -46 27 -2 0 -26 13 -52 29 -27 16
-66 34 -88 41 -22 7 -51 26 -65 41 -30 33 -98 59 -160 59 -25 0 -74 7 -110 14
-95 20 -197 30 -203 19z"/>
<path d="M3006 3431 c-4 -5 -2 -12 3 -15 5 -4 12 -2 15 3 4 5 2 12 -3 15 -5 4
-12 2 -15 -3z"/>
<path d="M3735 2279 c-4 -5 -4 -21 -1 -35 11 -43 86 -25 86 21 0 22 -4 25 -39
25 -22 0 -43 -5 -46 -11z"/>
<path d="M2543 2379 c-14 -5 -23 -17 -23 -29 0 -18 5 -20 43 -18 33 3 42 7 42
22 0 23 -32 36 -62 25z"/>
<path d="M2814 1839 c-3 -6 -2 -15 4 -21 6 -6 11 -2 15 11 5 22 -7 29 -19 10z"/>
<path d="M2916 1834 c-21 -21 -27 -52 -18 -93 9 -41 30 -56 64 -48 36 9 52 58
36 104 -7 18 -18 33 -25 33 -7 0 -13 5 -13 10 0 15 -27 12 -44 -6z"/>
<path d="M3150 1751 c0 -57 14 -71 54 -53 27 12 33 60 9 69 -12 5 -12 7 -1 14
9 6 7 9 -9 9 -12 0 -28 3 -37 6 -13 5 -16 -2 -16 -45z"/>
<path d="M3505 1790 c3 -5 11 -10 16 -10 6 0 7 5 4 10 -3 6 -11 10 -16 10 -6
0 -7 -4 -4 -10z"/>
<path d="M3643 1732 c4 -31 18 -42 45 -36 25 7 30 34 7 34 -8 0 -15 -5 -15
-11 0 -6 -9 -1 -20 12 l-20 24 3 -23z"/>
<path d="M4170 1650 c0 -5 5 -10 11 -10 5 0 8 -4 5 -9 -3 -5 3 -11 14 -14 11
-3 18 -1 14 4 -3 5 3 9 13 9 13 0 10 4 -11 15 -33 18 -46 19 -46 5z"/>
<path d="M3376 1298 c-20 -28 -8 -36 45 -33 48 3 54 7 39 34 -15 29 -64 28
-84 -1z"/>
<path d="M3610 1305 c-19 -23 -7 -38 37 -42 46 -4 59 7 43 37 -13 24 -62 27
-80 5z"/>
<path d="M3844 1312 c-6 -4 -14 -33 -18 -64 -5 -50 -3 -61 14 -78 25 -25 52
-26 74 -1 44 48 22 151 -32 151 -15 0 -32 -4 -38 -8z"/>
<path d="M2439 1312 c-35 -29 -19 -52 36 -52 38 0 45 3 45 19 0 22 -25 51 -45
51 -7 0 -23 -8 -36 -18z"/>
<path d="M3166 774 c-9 -8 -17 -25 -18 -37 -5 -74 16 -117 57 -117 36 0 55 31
55 88 0 56 -17 82 -55 82 -13 0 -31 -7 -39 -16z"/>
<path d="M2655 764 c-13 -20 -16 -39 -12 -72 6 -51 26 -72 68 -72 36 0 59 33
59 85 0 55 -22 85 -64 85 -25 0 -38 -7 -51 -26z"/>
<path d="M3425 774 c-25 -25 -13 -39 38 -42 40 -3 47 0 47 15 0 41 -54 58 -85
27z"/>
</g>
</svg>
