<?xml version="1.0" standalone="no"?>
<!DOCTYPE svg PUBLIC "-//W3C//DTD SVG 20010904//EN"
 "http://www.w3.org/TR/2001/REC-SVG-20010904/DTD/svg10.dtd">
<svg version="1.0" xmlns="http://www.w3.org/2000/svg"
 width="225.000000pt" height="225.000000pt" viewBox="0 0 225.000000 225.000000"
 preserveAspectRatio="xMidYMid meet">

<g transform="translate(0.000000,225.000000) scale(0.100000,-0.100000)"
fill="#000000" stroke="none">
<path d="M0 1125 l0 -1125 555 0 c384 0 555 3 555 11 0 5 5 7 10 4 6 -3 10 4
11 17 1 23 1 22 8 -2 l7 -25 552 -3 552 -2 0 1125 0 1125 -354 0 c-243 0 -364
-4 -383 -11 l-28 -12 33 -10 c36 -11 44 -44 17 -67 -13 -11 -13 -15 -3 -22 10
-6 10 -10 -2 -19 -12 -8 -12 -12 -2 -16 28 -11 -28 -40 -89 -47 -103 -10 -116
-40 -23 -52 56 -7 81 -27 53 -45 -8 -5 -47 -9 -86 -9 -108 0 -95 -17 37 -48
28 -6 36 -14 38 -34 3 -24 -2 -27 -55 -43 -32 -9 -73 -22 -90 -27 -43 -12 -42
-28 1 -28 59 0 156 -13 151 -20 -2 -4 -23 -7 -47 -8 -97 -3 -159 -14 -165 -29
-5 -14 -8 -13 -20 3 -7 10 -13 26 -13 37 0 10 -12 34 -26 53 -23 29 -32 34
-69 34 -37 0 -46 -5 -69 -34 -14 -19 -26 -43 -26 -53 0 -23 -59 -95 -60 -73 0
17 -66 46 -127 55 -22 4 -49 13 -60 20 -17 13 -17 14 0 21 10 4 57 -1 104 -10
55 -11 90 -13 96 -7 17 17 -2 29 -74 46 -40 9 -84 22 -100 30 -15 8 -48 15
-74 15 -25 0 -45 3 -45 8 1 18 29 42 43 36 22 -8 31 14 13 32 -9 8 -16 19 -16
23 0 9 56 27 115 36 62 10 75 15 75 29 0 8 -24 18 -62 26 -38 7 -67 19 -75 30
-7 9 -27 20 -44 24 -61 12 -64 26 -12 52 25 13 60 25 77 25 20 1 24 3 12 6
-11 3 -14 8 -8 12 7 4 6 16 -3 39 l-14 32 -396 0 -395 0 0 -1125z m1600 1025
c0 -5 -5 -10 -11 -10 -5 0 -7 5 -4 10 3 6 8 10 11 10 2 0 4 -4 4 -10z m-970
-200 c11 -7 3 -10 -30 -9 -34 0 -40 2 -25 9 27 12 37 12 55 0z m1130 -111 c0
-5 -22 -9 -49 -9 -27 0 -64 -3 -82 -6 l-34 -6 35 19 c36 19 130 20 130 2z
m-612 -76 c-10 -2 -28 -2 -40 0 -13 2 -5 4 17 4 22 1 32 -1 23 -4z m-220 -135
c-8 -13 -31 -32 -51 -43 -29 -15 -36 -25 -34 -44 3 -30 -19 -39 -26 -11 -3 12
-15 24 -27 27 -19 5 -16 9 24 28 26 12 54 29 64 37 17 15 39 26 56 27 5 1 2
-9 -6 -21z m443 -20 c35 -18 70 -32 76 -32 7 -1 13 -5 12 -11 0 -5 12 -15 26
-21 26 -10 24 -11 -31 -22 -62 -13 -76 -7 -67 28 3 12 -2 20 -16 25 -28 9 -86
65 -67 65 2 0 33 -14 67 -32z m-157 -19 c-20 -23 -28 -18 -19 10 4 12 12 18
21 14 13 -5 13 -8 -2 -24z m-160 5 c4 -10 1 -14 -6 -12 -15 5 -23 28 -10 28 5
0 13 -7 16 -16z m155 -70 c-11 -11 -36 -15 -84 -15 -48 0 -73 4 -84 15 -14 15
-6 16 84 16 90 0 98 -1 84 -16z m-412 -36 c-3 -8 -6 -5 -6 6 -1 11 2 17 5 13
3 -3 4 -12 1 -19z m633 -9 c0 -6 -4 -7 -10 -4 -5 3 -10 11 -10 16 0 6 5 7 10
4 6 -3 10 -11 10 -16z m210 1 c0 -5 -18 -10 -41 -10 -24 0 -38 4 -34 10 3 6
22 10 41 10 19 0 34 -4 34 -10z m-160 -30 c0 -5 -9 -10 -20 -10 -11 0 -20 5
-20 10 0 6 9 10 20 10 11 0 20 -4 20 -10z m-42 -89 c12 -10 22 -27 22 -38 0
-37 -13 -33 -32 8 -25 57 -24 60 10 30z m-672 -13 c-3 -13 -6 -33 -6 -45 0
-14 -6 -23 -15 -23 -11 0 -12 5 -5 26 6 14 8 30 4 35 -7 11 4 29 18 29 6 0 8
-10 4 -22z m787 -115 c-7 -2 -19 -2 -25 0 -7 3 -2 5 12 5 14 0 19 -2 13 -5z
m-1313 -92 c0 -9 7 -29 15 -45 22 -41 12 -43 -18 -4 -39 53 -44 84 -11 71 8
-3 14 -13 14 -22z m908 -14 c2 -11 -3 -17 -15 -17 -26 0 -58 24 -49 38 9 15
60 -1 64 -21z m-321 17 c-3 -3 -12 -4 -19 -1 -8 3 -5 6 6 6 11 1 17 -2 13 -5z
m223 -24 c0 -5 -2 -10 -4 -10 -3 0 -8 5 -11 10 -3 6 -1 10 4 10 6 0 11 -4 11
-10z m-660 -31 c0 -5 -4 -9 -10 -9 -5 0 -10 7 -10 16 0 8 5 12 10 9 6 -3 10
-10 10 -16z m790 6 c0 -8 -7 -15 -15 -15 -16 0 -20 12 -8 23 11 12 23 8 23 -8z
m-202 -19 c41 -1 77 -26 51 -35 -16 -5 -179 31 -179 40 0 13 24 16 55 6 17 -5
49 -10 73 -11z m142 4 c0 -5 -2 -10 -4 -10 -3 0 -8 5 -11 10 -3 6 -1 10 4 10
6 0 11 -4 11 -10z m170 -7 c16 -6 -28 -21 -90 -30 l-35 -4 26 18 c28 19 73 26
99 16z m680 -13 c0 -5 -5 -10 -11 -10 -5 0 -7 5 -4 10 3 6 8 10 11 10 2 0 4
-4 4 -10z m-1850 -56 c0 -8 -5 -12 -10 -9 -6 4 -8 11 -5 16 9 14 15 11 15 -7z
m2012 -54 c-2 -17 -8 -33 -13 -36 -10 -6 -12 69 -2 79 11 12 20 -12 15 -43z
m-859 -17 c-7 -2 -21 -2 -30 0 -10 3 -4 5 12 5 17 0 24 -2 18 -5z m837 -93 c0
-11 -7 -20 -15 -20 -18 0 -19 12 -3 28 16 16 18 15 18 -8z m-532 -98 c2 -7 -3
-12 -12 -12 -9 0 -16 7 -16 16 0 17 22 14 28 -4z m498 -28 c-4 -14 -11 -22
-16 -19 -14 9 -12 53 3 58 16 5 20 -8 13 -39z m-1866 -49 c0 -2 -12 7 -26 20
-14 13 -23 29 -19 35 5 7 14 0 26 -19 10 -18 19 -33 19 -36z m426 -24 c1 -17
-3 -20 -20 -15 -29 9 -31 11 -16 29 17 21 35 14 36 -14z m-396 9 c0 -5 -2 -10
-4 -10 -3 0 -8 5 -11 10 -3 6 -1 10 4 10 6 0 11 -4 11 -10z m870 -20 c18 -33
4 -57 -35 -62 -38 -4 -71 9 -47 19 10 4 10 8 1 19 -19 23 -3 44 35 44 25 0 38
-6 46 -20z m111 9 c19 -10 20 -12 4 -29 -11 -12 -13 -20 -6 -25 22 -13 11 -27
-16 -20 -33 8 -43 21 -43 58 0 30 24 36 61 16z m435 -4 c-35 -19 -37 -19 -30
0 4 8 18 15 33 15 l26 0 -29 -15z m-1381 -15 c3 -5 1 -10 -4 -10 -6 0 -11 5
-11 10 0 6 2 10 4 10 3 0 8 -4 11 -10z m1505 -149 l0 -128 -112 -1 c-96 0
-118 2 -145 19 -51 32 -58 80 -19 126 22 26 30 28 103 30 l78 2 3 33 c4 51 7
54 51 50 l41 -4 0 -127z m-1009 119 c38 -21 17 -50 -35 -50 -22 0 -46 17 -46
32 0 8 35 26 53 27 5 1 17 -4 28 -9z m1269 -15 c21 -22 21 -25 6 -31 -10 -4
-28 -1 -42 6 -20 11 -28 11 -48 0 -14 -7 -33 -9 -43 -6 -16 7 -15 10 10 32 38
32 86 32 117 -1z m-1505 5 c3 -5 1 -10 -4 -10 -6 0 -11 5 -11 10 0 6 2 10 4
10 3 0 8 -4 11 -10z m70 -81 c15 -14 20 -36 23 -89 l4 -70 -46 0 -46 0 0 60
c0 54 -3 62 -24 71 -17 8 -29 8 -45 0 -18 -10 -21 -21 -21 -72 l0 -60 -42 3
-43 3 -3 57 c-3 62 -23 85 -62 73 -23 -7 -31 -34 -28 -90 l3 -40 -45 0 -45 0
0 85 0 85 28 3 c16 2 34 -2 42 -8 10 -8 19 -8 34 -1 26 14 114 14 128 0 8 -8
23 -6 54 5 52 18 106 12 134 -15z m668 10 c27 -15 38 -54 31 -115 l-7 -54 -38
0 -39 0 0 54 c0 58 -16 86 -49 86 -29 0 -42 -24 -44 -82 l-2 -53 -40 0 -40 0
-3 57 c-3 67 -25 89 -68 69 -21 -9 -24 -17 -24 -71 l0 -61 -42 3 -43 3 -3 86
-3 86 103 1 c57 1 114 -3 128 -9 19 -7 35 -6 60 6 36 15 87 13 123 -6z m-488
-79 l0 -85 -42 -3 -43 -3 0 91 0 91 43 -3 42 -3 0 -85z m1280 80 c27 -10 57
-64 48 -87 -4 -9 -24 -12 -72 -10 -133 7 -148 -24 -16 -33 53 -4 70 -9 70 -20
0 -23 -153 -26 -201 -4 -69 33 -71 113 -4 146 39 20 133 24 175 8z m-1462
-215 c9 -23 -17 -46 -59 -52 -34 -4 -42 -2 -48 13 -3 11 -9 24 -12 31 -5 12
13 17 78 20 23 1 38 -3 41 -12z m1382 -55 c-3 -5 -10 -10 -16 -10 -5 0 -9 5
-9 10 0 6 7 10 16 10 8 0 12 -4 9 -10z m-1487 -79 c-23 -19 -38 -19 -38 0 0 5
7 9 16 9 10 0 14 6 11 14 -8 19 16 27 26 9 6 -9 1 -20 -15 -32z m1372 29 c13
-8 12 -10 -1 -15 -29 -11 -72 -10 -76 2 -4 10 13 17 52 21 6 1 17 -2 25 -8z
m20 -90 c0 -5 -7 -10 -16 -10 -8 0 -12 5 -9 10 3 6 10 10 16 10 5 0 9 -4 9
-10z m16 -60 c8 0 14 -7 14 -15 0 -22 -33 -18 -49 6 -11 19 -11 21 4 15 9 -3
23 -6 31 -6z"/>
<path d="M1585 456 c-21 -32 -6 -62 34 -71 40 -8 71 12 71 47 0 50 -77 67
-105 24z"/>
<path d="M1952 479 c-33 -13 -18 -29 29 -29 40 0 55 22 23 34 -19 7 -23 7 -52
-5z"/>
<path d="M1460 2130 c0 -13 20 -13 40 0 12 8 9 10 -12 10 -16 0 -28 -4 -28
-10z"/>
<path d="M848 2063 c6 -2 18 -2 25 0 6 3 1 5 -13 5 -14 0 -19 -2 -12 -5z"/>
<path d="M1115 1870 c3 -5 13 -10 21 -10 8 0 12 5 9 10 -3 6 -13 10 -21 10 -8
0 -12 -4 -9 -10z"/>
<path d="M1186 1868 c7 -11 35 -10 54 2 11 7 5 9 -22 8 -21 -1 -35 -5 -32 -10z"/>
<path d="M1018 1863 c7 -3 16 -2 19 1 4 3 -2 6 -13 5 -11 0 -14 -3 -6 -6z"/>
</g>
</svg>
