<?xml version="1.0" standalone="no"?>
<!DOCTYPE svg PUBLIC "-//W3C//DTD SVG 20010904//EN"
 "http://www.w3.org/TR/2001/REC-SVG-20010904/DTD/svg10.dtd">
<svg version="1.0" xmlns="http://www.w3.org/2000/svg"
 width="259.000000pt" height="194.000000pt" viewBox="0 0 259.000000 194.000000"
 preserveAspectRatio="xMidYMid meet">

<g transform="translate(0.000000,194.000000) scale(0.100000,-0.100000)"
fill="#000000" stroke="none">
<path d="M284 1905 c-3 -19 -1 -72 5 -117 11 -76 10 -86 -8 -122 -14 -26 -18
-48 -14 -70 8 -39 49 -133 60 -137 32 -14 88 -189 84 -263 -1 -15 4 -35 10
-42 17 -20 6 -26 -25 -14 -23 8 -30 6 -49 -13 -18 -19 -28 -22 -55 -16 -35 7
-155 -5 -237 -24 -33 -8 -51 -18 -53 -30 -4 -22 42 -23 148 -3 41 8 111 17
155 20 44 4 92 12 108 18 23 9 31 7 48 -8 19 -17 21 -28 17 -104 -2 -52 1 -85
7 -85 6 -1 20 -6 33 -13 21 -12 22 -18 22 -140 0 -74 6 -148 14 -177 17 -65
55 -124 84 -131 42 -12 341 1 354 14 10 10 8 14 -10 18 -20 6 -24 11 -21 31 0
3 -6 10 -15 15 -22 13 -20 38 3 38 11 0 32 -5 48 -11 48 -19 221 -21 255 -3
65 34 101 -5 53 -56 l-27 -28 59 -12 c38 -8 82 -10 128 -5 92 11 161 11 326 1
144 -9 161 -5 137 33 -9 16 -9 27 5 58 38 88 50 248 24 299 -8 16 -31 43 -50
61 l-35 32 20 68 c12 37 22 74 24 80 2 7 20 20 41 28 28 11 47 29 70 68 17 28
43 63 57 76 25 24 27 24 40 6 9 -12 15 -14 20 -7 4 7 16 12 26 12 12 0 22 9
26 25 3 13 15 27 25 30 10 4 19 13 19 21 0 11 -9 13 -40 8 -25 -4 -40 -3 -40
4 0 5 -9 12 -20 15 -23 6 -27 42 -7 72 30 45 41 102 27 148 -11 42 -15 45 -63
59 -51 13 -52 14 -49 48 13 175 13 202 2 213 -10 9 -14 9 -17 0 -3 -7 -11 -13
-19 -13 -8 0 -14 -4 -14 -10 0 -5 -4 -10 -9 -10 -12 0 -71 59 -71 71 0 5 -323
9 -815 9 l-814 0 -7 -35z m1452 -209 c59 -27 89 -64 98 -121 8 -45 -8 -68 -54
-78 -22 -5 -28 0 -49 46 -31 64 -45 77 -90 77 -26 0 -47 -10 -83 -41 l-48 -40
-25 28 c-13 15 -25 41 -25 56 -1 81 165 125 276 73z m-1005 -17 c57 -12 129
-68 129 -100 0 -10 5 -21 10 -24 10 -6 -28 -43 -67 -64 -52 -27 -122 -4 -135
44 -5 20 -21 37 -48 53 -49 27 -82 22 -111 -20 -16 -21 -24 -26 -34 -18 -35
29 26 104 104 126 59 16 88 17 152 3z m1393 -394 c-4 -8 -8 -15 -10 -15 -2 0
-4 7 -4 15 0 8 4 15 10 15 5 0 7 -7 4 -15z m-954 -74 c0 -12 -20 -25 -27 -18
-7 7 6 27 18 27 5 0 9 -4 9 -9z m-17 -398 c-7 -2 -19 -2 -25 0 -7 3 -2 5 12 5
14 0 19 -2 13 -5z"/>
<path d="M0 1296 c0 -41 11 -45 41 -15 25 25 20 43 -14 47 -25 3 -27 0 -27
-32z"/>
<path d="M2285 1240 c10 -11 22 -20 27 -20 4 0 8 9 8 20 0 15 -7 20 -27 20
-25 0 -26 0 -8 -20z"/>
<path d="M2218 1236 c-9 -9 -22 -16 -29 -16 -9 0 -8 -4 1 -15 14 -17 45 -21
34 -4 -3 6 -1 15 6 19 7 4 11 13 8 20 -3 9 -8 8 -20 -4z"/>
<path d="M2410 1219 c-19 -11 -48 -19 -65 -18 -57 2 -60 0 -38 -21 14 -12 40
-21 74 -23 47 -4 55 -2 72 19 14 18 24 23 44 18 35 -9 50 16 20 33 -31 17 -67
15 -107 -8z"/>
<path d="M2368 1133 c7 -3 16 -2 19 1 4 3 -2 6 -13 5 -11 0 -14 -3 -6 -6z"/>
<path d="M2190 1080 c0 -5 4 -10 9 -10 6 0 13 5 16 10 3 6 -1 10 -9 10 -9 0
-16 -4 -16 -10z"/>
<path d="M2546 1061 c-18 -7 -18 -8 -3 -14 9 -3 17 -2 17 3 0 5 8 11 18 13 11
3 12 5 2 5 -8 0 -24 -3 -34 -7z"/>
<path d="M2527 873 c-15 -15 -5 -23 28 -23 24 0 35 5 35 15 0 15 -50 22 -63 8z"/>
<path d="M2480 787 c0 -19 -68 -33 -83 -18 -16 16 -43 13 -87 -9 -46 -24 -48
-29 -18 -55 21 -19 40 -32 121 -83 20 -13 37 -28 37 -33 0 -5 6 -9 13 -9 14 0
83 -69 111 -110 15 -23 16 -18 16 112 0 152 2 148 -78 148 l-33 0 28 24 c30
26 30 30 -4 40 -17 5 -23 3 -23 -7z"/>
<path d="M1093 453 c9 -2 23 -2 30 0 6 3 -1 5 -18 5 -16 0 -22 -2 -12 -5z"/>
<path d="M676 376 c-8 -32 1 -54 26 -62 26 -8 37 4 40 46 3 33 1 35 -28 38
-26 3 -33 -1 -38 -22z"/>
<path d="M1767 393 c-4 -3 -7 -19 -7 -35 0 -21 7 -32 25 -40 32 -14 44 -4 52
45 6 37 5 37 -29 37 -19 0 -38 -3 -41 -7z"/>
<path d="M60 322 c-34 -12 -60 -53 -60 -96 0 -36 6 -49 44 -89 24 -26 47 -47
50 -47 4 0 7 12 6 27 -4 49 0 63 14 63 19 0 46 39 46 65 0 35 -69 88 -100 77z
m46 -49 c-4 -16 -8 -39 -9 -52 -4 -42 -24 -34 -37 15 -14 50 -7 64 34 64 15 0
17 -5 12 -27z"/>
<path d="M215 293 c-38 -41 -35 -93 9 -139 19 -20 37 -49 40 -66 4 -18 10 -27
17 -22 16 10 4 91 -20 139 -25 47 -26 68 -6 85 23 19 49 4 40 -23 -17 -54 -17
-77 -1 -83 24 -9 56 24 56 57 0 37 -42 79 -80 79 -19 0 -38 -10 -55 -27z"/>
<path d="M826 311 c-3 -4 -3 -76 1 -160 l6 -151 152 0 c174 0 179 2 145 73
-11 22 -20 45 -20 50 0 6 -15 28 -33 51 -18 23 -38 54 -45 69 -23 53 -49 17
-51 -70 -1 -23 -10 -62 -21 -88 -18 -43 -22 -46 -52 -43 l-33 3 -2 110 c-2 61
-5 120 -8 131 -5 23 -31 39 -39 25z m212 -204 c4 -22 -27 -35 -38 -16 -10 15
7 42 24 36 6 -2 12 -11 14 -20z m57 -36 c7 -12 -12 -24 -25 -16 -11 7 -4 25
10 25 5 0 11 -4 15 -9z"/>
<path d="M2301 301 c-8 -15 -9 -39 -1 -86 6 -36 10 -94 9 -128 -1 -34 -1 -68
0 -74 1 -10 36 -13 141 -13 l140 0 0 70 c0 54 -4 72 -15 76 -21 9 -43 -12 -51
-49 -3 -17 -14 -37 -23 -44 -17 -13 -129 -17 -147 -5 -8 4 -13 52 -15 129 -4
126 -16 166 -38 124z"/>
<path d="M1917 304 c-11 -11 -8 -63 3 -85 6 -11 12 -64 12 -119 l1 -100 154 0
c143 0 153 1 153 19 0 10 -7 32 -15 47 -8 16 -15 38 -15 50 0 11 -16 36 -36
55 -19 18 -42 49 -51 67 -9 18 -21 31 -27 29 -6 -2 -18 -46 -26 -98 -9 -52
-19 -102 -23 -111 -8 -22 -69 -25 -85 -5 -7 7 -13 65 -14 132 -3 110 -10 139
-31 119z m213 -199 c0 -28 -12 -38 -34 -29 -20 8 -20 23 0 45 20 23 34 16 34
-16z m60 -46 c0 -25 -33 -22 -38 4 -2 12 3 17 17 17 15 0 21 -6 21 -21z"/>
<path d="M1241 278 c-5 -13 -6 -27 -3 -33 4 -5 9 -58 12 -116 4 -58 10 -111
14 -117 5 -8 47 -12 132 -12 l124 0 0 70 c0 58 -3 71 -19 79 -14 8 -22 7 -32
-5 -11 -13 -10 -21 4 -46 14 -25 15 -33 5 -45 -17 -20 -165 -13 -179 8 -5 8
-9 53 -9 101 0 88 -11 138 -30 138 -6 0 -14 -10 -19 -22z"/>
<path d="M1640 274 c-8 -20 -8 -41 -1 -71 6 -23 11 -78 11 -122 0 -68 3 -81
16 -81 15 0 16 14 10 142 -8 148 -17 183 -36 132z"/>
<path d="M554 277 c-6 -16 14 -268 22 -276 15 -15 19 59 10 189 -6 83 -19 120
-32 87z"/>
<path d="M737 236 c-12 -32 -7 -83 12 -126 11 -24 17 -49 14 -56 -3 -8 -27
-14 -61 -16 -45 -2 -58 -7 -60 -21 -3 -15 6 -17 77 -17 l80 0 -3 77 c-2 60 -8
89 -28 127 -19 38 -26 45 -31 32z"/>
<path d="M1826 195 c-5 -24 -1 -49 15 -84 11 -27 18 -55 14 -60 -3 -6 -31 -11
-61 -11 -47 0 -54 -2 -54 -20 0 -18 7 -20 75 -20 l75 0 0 72 c0 58 -5 79 -25
115 -14 23 -27 43 -29 43 -2 0 -7 -16 -10 -35z"/>
<path d="M260 20 c-9 -18 -8 -20 15 -20 23 0 24 2 15 20 -6 11 -13 20 -15 20
-2 0 -9 -9 -15 -20z"/>
<path d="M67 15 c-5 -10 0 -15 14 -15 12 0 19 5 17 12 -6 18 -25 20 -31 3z"/>
</g>
</svg>
