<?xml version="1.0" standalone="no"?>
<!DOCTYPE svg PUBLIC "-//W3C//DTD SVG 20010904//EN"
 "http://www.w3.org/TR/2001/REC-SVG-20010904/DTD/svg10.dtd">
<svg version="1.0" xmlns="http://www.w3.org/2000/svg"
 width="512.000000pt" height="512.000000pt" viewBox="0 0 512.000000 512.000000"
 preserveAspectRatio="xMidYMid meet">

<g transform="translate(0.000000,512.000000) scale(0.100000,-0.100000)"
fill="#000000" stroke="none">
<path d="M2474 4780 c-28 -4 -75 -21 -105 -37 -47 -26 -54 -34 -51 -56 1 -15
-2 -36 -8 -46 -7 -14 -7 -22 0 -26 20 -12 300 -5 320 8 26 15 25 39 -1 63 -16
14 -20 28 -17 61 l3 43 -45 -1 c-25 -1 -68 -5 -96 -9z"/>
<path d="M2700 4781 c-35 -10 -38 -44 -5 -59 33 -15 63 -15 120 0 51 14 59 34
18 44 -16 3 -44 10 -63 15 -19 5 -37 8 -40 8 -3 -1 -16 -4 -30 -8z"/>
<path d="M2896 4705 c-9 -13 -28 -28 -43 -31 -15 -4 -38 -13 -52 -20 -14 -8
-36 -14 -47 -14 -12 0 -27 -7 -34 -15 -11 -13 -6 -15 37 -15 51 0 72 -13 86
-52 5 -15 19 -18 74 -19 37 0 85 -2 105 -5 46 -4 52 4 33 50 -8 19 -15 46 -15
60 0 18 -11 30 -45 50 -70 39 -80 40 -99 11z"/>
<path d="M2173 4612 c-6 -4 -15 -20 -18 -35 -4 -15 -11 -27 -15 -27 -15 0 -19
-43 -5 -62 13 -19 13 -19 20 3 4 12 16 32 27 43 24 26 48 73 40 80 -8 8 -35 7
-49 -2z"/>
<path d="M3070 4531 c0 -17 27 -60 50 -79 23 -19 21 -42 -5 -42 -22 0 -33 -56
-39 -195 -6 -141 -18 -199 -43 -213 -21 -13 -47 -72 -30 -72 7 0 6 -4 -3 -10
-13 -9 -13 -10 0 -10 13 0 13 -1 0 -10 -12 -8 -12 -10 -1 -10 11 0 11 -3 1
-15 -11 -13 -10 -14 4 -9 12 5 15 2 9 -12 -5 -13 -3 -15 8 -9 12 8 12 6 0 -8
-12 -16 -12 -17 5 -10 16 6 17 5 6 -9 -11 -14 -10 -18 5 -27 12 -7 14 -10 4
-11 -10 0 -7 -6 7 -19 12 -10 19 -21 15 -25 -3 -3 -1 -6 6 -6 7 0 10 -4 7 -8
-2 -4 9 -14 25 -21 16 -7 27 -16 25 -20 -3 -4 22 -15 55 -25 32 -9 59 -21 59
-27 0 -5 47 -9 110 -8 60 0 114 -2 120 -6 7 -4 32 -9 58 -11 25 -3 51 -9 56
-13 6 -5 44 -16 84 -24 40 -9 78 -20 85 -25 7 -5 37 -17 67 -27 30 -9 70 -24
88 -31 18 -8 42 -14 52 -14 11 0 20 -3 20 -7 0 -8 48 -33 63 -33 24 0 202 -88
222 -110 10 -11 24 -20 32 -20 7 0 13 -4 13 -10 0 -5 11 -10 25 -10 14 0 33
-4 43 -10 9 -5 40 -14 67 -18 45 -7 50 -10 47 -32 -4 -44 -28 -52 -130 -47
-85 4 -117 -2 -92 -18 15 -9 12 -28 -4 -22 -7 3 -22 0 -32 -7 -11 -8 -50 -16
-89 -20 -101 -10 -103 -10 -121 -32 -8 -10 -13 -13 -9 -6 7 14 -21 11 -79 -8
-18 -6 -65 -11 -104 -13 -43 -1 -74 -7 -76 -14 -3 -6 -22 -10 -45 -9 -23 1
-41 -2 -41 -6 0 -5 -3 -7 -8 -5 -14 10 -147 11 -161 2 -10 -5 -16 -4 -19 3 -3
11 -42 18 -42 7 0 -3 8 -14 18 -24 31 -35 42 -50 42 -58 0 -11 58 -41 92 -48
81 -15 74 -4 73 -111 0 -53 4 -98 8 -101 4 -3 4 -10 -1 -16 -5 -7 -8 -33 -7
-59 0 -26 -2 -45 -6 -42 -4 2 -9 -5 -12 -16 -3 -13 -1 -18 6 -13 7 4 7 0 -1
-9 -9 -12 -10 -18 -2 -23 7 -5 8 -11 1 -19 -6 -7 -6 -17 -1 -26 5 -8 6 -18 3
-24 -3 -5 -8 -50 -10 -100 -3 -50 -5 -97 -5 -103 -1 -10 -4 -10 -16 0 -13 10
-14 9 -3 -12 10 -17 10 -26 1 -35 -8 -8 -10 -7 -5 5 4 10 2 19 -3 23 -11 6 -9
-24 3 -43 5 -9 4 -12 -3 -7 -6 3 -14 1 -18 -5 -4 -8 -3 -9 4 -5 28 17 9 -24
-20 -46 -42 -31 -71 -41 -190 -69 -53 -13 -95 -26 -93 -29 5 -9 -103 -25 -345
-52 -168 -18 -253 -21 -615 -22 -449 0 -441 -1 -640 55 -112 32 -175 78 -173
127 0 15 -3 45 -6 67 -4 22 -10 64 -13 94 -3 37 -8 49 -14 40 -7 -11 -9 -10
-10 6 0 11 -2 29 -5 40 -9 42 -13 186 -5 181 14 -9 6 83 -8 96 -11 10 -12 10
-7 1 4 -7 3 -13 -2 -13 -12 0 -22 35 -22 78 0 18 11 73 25 122 14 49 25 98 25
109 0 10 6 21 13 24 9 3 8 8 -3 22 -11 14 -12 19 -2 22 6 3 12 10 12 17 0 7
11 33 24 58 13 24 27 55 31 69 4 13 14 32 22 41 8 9 19 36 24 59 6 23 19 54
29 70 11 15 20 32 20 39 0 6 5 8 10 5 6 -4 9 -3 8 2 -1 4 4 19 11 32 12 21 12
23 -4 18 -9 -4 -19 -7 -21 -7 -2 0 -4 -5 -4 -11 0 -6 -12 -26 -27 -45 -18 -24
-33 -34 -47 -32 -12 2 -20 9 -18 16 3 16 -15 16 -21 0 -3 -10 -9 -10 -28 -2
-13 6 -37 16 -54 21 -16 5 -29 14 -28 20 2 10 -2 11 -49 16 -15 2 -33 8 -40
14 -14 11 -45 24 -66 29 -13 2 -77 71 -95 100 -6 10 -14 11 -35 3 -51 -20
-156 17 -132 46 12 14 73 26 133 25 30 0 40 4 44 18 3 13 30 27 89 46 46 16
81 32 78 37 -3 5 2 6 10 3 8 -3 29 2 47 11 20 11 67 19 118 23 47 2 91 8 96
13 10 7 195 12 275 6 49 -3 52 -34 8 -76 l-33 -32 30 7 c17 4 38 11 47 16 12
6 26 3 42 -8 36 -23 64 -10 76 37 6 22 17 39 25 39 11 0 12 5 5 26 -16 42 -11
47 21 20 25 -22 41 -26 89 -26 49 0 61 4 74 22 19 27 12 40 -20 32 -13 -3 -32
-3 -41 2 -10 4 -34 8 -53 8 -30 1 -35 5 -38 26 -5 45 -11 53 -26 41 -9 -8 -16
-8 -20 -2 -4 5 -2 12 3 16 11 6 8 22 -13 80 -10 28 -11 45 -4 59 7 13 7 16 -1
12 -6 -4 -11 -2 -11 3 0 6 4 11 8 11 4 0 6 16 4 35 -2 19 -8 35 -13 35 -5 0
-9 4 -9 9 0 4 10 7 23 6 12 -1 41 -3 64 -4 37 -1 42 -4 45 -28 4 -35 46 -50
89 -33 40 17 36 30 -9 30 -39 0 -49 9 -66 64 -5 13 -12 17 -29 12 -36 -9 -97
60 -97 108 0 25 4 36 15 36 16 0 21 43 9 74 -10 27 -41 19 -47 -11 -13 -68
-42 -159 -53 -168 -7 -5 -15 -26 -18 -45 -3 -19 -11 -66 -19 -105 -8 -38 -15
-113 -16 -165 -1 -52 -4 -96 -7 -99 -8 -8 -54 -7 -54 1 0 4 7 8 15 8 8 0 15 6
16 13 0 6 2 22 3 35 2 12 -1 22 -6 22 -5 0 -6 5 -2 12 4 6 7 27 6 46 -1 19 2
40 5 46 11 17 10 67 -1 73 -6 3 -8 3 -4 -2 4 -4 3 -16 -2 -25 -5 -10 -12 -42
-15 -70 -3 -29 -8 -56 -10 -61 -3 -4 -1 -10 5 -14 6 -4 7 -12 3 -18 -4 -7 -8
-17 -9 -23 -1 -6 -5 -21 -9 -33 -4 -14 -2 -23 9 -27 8 -3 12 -12 9 -20 -3 -8
-10 -11 -16 -7 -6 4 -24 6 -39 5 -14 -1 -29 2 -32 7 -5 8 -24 7 -100 -2 -10
-1 -21 3 -23 9 -2 7 19 12 59 13 43 2 65 7 71 17 5 8 12 12 18 9 5 -4 6 2 2
12 -6 15 -4 16 9 5 13 -10 17 -10 21 1 4 10 -5 13 -34 13 -27 0 -34 -3 -24 -9
25 -14 9 -23 -42 -26 -117 -6 -173 -17 -173 -35 0 -7 -10 -13 -22 -12 -13 1
-29 -4 -35 -10 -8 -8 -24 -9 -47 -4 -23 5 -36 4 -39 -3 -2 -6 -20 -12 -40 -12
-26 -1 -37 3 -40 16 -3 9 -15 22 -27 29 -15 8 -20 8 -16 1 4 -6 0 -11 -9 -11
-10 0 -13 5 -9 13 5 8 2 8 -9 -2 -9 -7 -17 -26 -17 -42 0 -29 -1 -29 -42 -23
-30 5 -39 4 -34 -4 4 -7 2 -12 -3 -12 -6 0 -11 -8 -11 -18 0 -14 -8 -18 -29
-18 -21 0 -27 4 -24 14 5 11 7 11 14 0 7 -10 9 -10 9 2 0 22 -38 44 -54 31 -7
-6 -15 -9 -18 -6 -3 3 -10 -1 -17 -9 -10 -12 -17 -11 -49 4 -27 13 -39 15 -44
7 -5 -8 -8 -7 -8 3 0 13 -1 13 -10 0 -7 -11 -10 -11 -10 -2 0 10 -3 10 -14 0
-8 -7 -12 -16 -10 -19 2 -3 -3 -6 -11 -6 -8 0 -12 3 -10 7 2 4 -2 7 -10 7 -8
0 -12 -4 -9 -9 3 -4 -2 -8 -10 -8 -9 0 -16 5 -16 10 0 6 -7 10 -15 10 -8 0
-15 6 -15 13 0 8 -4 7 -10 -3 -9 -14 -15 -6 -10 15 1 6 -2 7 -6 3 -4 -4 -13
-3 -21 4 -11 9 -13 9 -11 -1 2 -9 -88 -12 -385 -11 l-387 0 0 -1875 0 -1875
2560 0 2560 0 0 1867 c0 1026 -2 1864 -6 1861 -3 -3 -21 -2 -40 2 -19 4 -36 4
-39 0 -3 -4 -20 -4 -39 0 -19 4 -38 5 -41 2 -3 -3 -31 -6 -63 -7 -31 0 -64 -5
-71 -9 -10 -6 -12 -5 -7 2 9 15 -26 16 -41 1 -8 -8 -13 -8 -17 0 -9 14 -63 14
-71 1 -5 -7 -11 -8 -19 -1 -10 9 -62 13 -131 11 -11 0 -31 0 -45 1 -33 1 -28
1 -160 -1 -63 -1 -119 -1 -125 0 -23 5 -36 -1 -29 -12 6 -10 5 -10 -8 -1 -8 7
-26 13 -39 13 -13 0 -40 0 -59 1 -19 0 -42 0 -50 0 -14 -1 -45 -1 -77 2 -7 0
-13 5 -13 10 0 5 -8 3 -17 -4 -12 -10 -15 -10 -9 -1 6 10 -6 12 -53 10 -34 -2
-62 -7 -62 -13 -1 -5 -2 -18 -2 -27 0 -10 -3 -15 -8 -13 -4 3 -5 17 -3 31 4
21 2 25 -11 20 -9 -3 -19 -6 -21 -6 -3 0 -3 -4 0 -8 3 -5 -1 -9 -9 -9 -8 0
-12 4 -10 8 3 3 -6 9 -20 11 -18 4 -26 0 -32 -16 -4 -12 -6 -25 -5 -29 1 -5
-2 -6 -7 -2 -6 3 -7 13 -4 22 5 12 3 14 -7 8 -9 -5 -11 -4 -6 4 4 6 12 9 17 6
5 -4 9 -1 9 4 0 6 -10 11 -22 12 -13 0 -31 2 -40 4 -11 2 -18 -3 -18 -11 0 -9
-4 -12 -10 -9 -6 3 -7 -1 -4 -9 3 -9 11 -13 18 -9 7 4 7 1 -1 -9 -17 -19 -5
-31 16 -16 13 10 14 10 4 -1 -6 -8 -29 -15 -50 -17 -27 -2 -34 -1 -23 6 13 8
12 10 -2 10 -10 0 -18 6 -18 13 0 8 -4 7 -10 -3 -5 -8 -10 -10 -10 -4 0 16 25
35 35 26 5 -4 5 -2 1 5 -3 6 1 13 11 16 14 4 13 5 -4 6 -13 0 -23 -5 -23 -11
0 -9 -4 -8 -10 2 -6 9 -10 10 -10 3 0 -7 -14 -11 -34 -10 -19 1 -32 5 -29 10
2 4 -1 7 -7 7 -6 0 -13 -7 -16 -15 -4 -8 -10 -13 -14 -10 -5 3 -11 1 -15 -5
-3 -5 1 -10 9 -10 9 0 16 -5 16 -10 0 -7 -6 -7 -20 0 -11 6 -20 18 -20 26 0 8
-4 13 -10 9 -5 -3 -18 3 -30 15 -17 17 -20 34 -21 113 -1 50 -1 94 -1 97 0 3
3 25 6 50 5 35 4 40 -4 22 -5 -13 -14 -21 -19 -17 -6 3 -7 -6 -2 -22 4 -16 9
-73 10 -128 2 -88 1 -98 -12 -85 -12 11 -19 75 -31 270 -19 315 -31 400 -57
400 -5 0 -15 12 -21 26 -16 35 -108 82 -108 55z m-1024 -446 c-1 -8 -5 -17 -8
-21 -5 -4 -4 16 1 34 3 9 9 -1 7 -13z m9 -35 c-3 -5 -12 -10 -18 -10 -7 0 -6
4 3 10 19 12 23 12 15 0z m-758 -282 c-3 -7 -5 -2 -5 12 0 14 2 19 5 13 2 -7
2 -19 0 -25z m40 5 c0 -16 -2 -22 -5 -14 -4 11 -6 11 -13 0 -6 -10 -8 -7 -6 8
0 12 5 19 9 17 4 -3 8 0 8 5 0 6 2 11 4 11 2 0 3 -12 3 -27z m1981 -35 c16
-16 16 -51 0 -46 -13 5 -31 58 -19 58 4 0 12 -5 19 -12z m-2069 -12 c11 -14 6
-15 -27 -7 -4 1 8 21 12 21 2 0 9 -6 15 -14z m2575 6 c3 -5 -1 -9 -9 -9 -8 0
-12 4 -9 9 3 4 7 8 9 8 2 0 6 -4 9 -8z m-2587 -48 c-3 -3 -12 -4 -19 -1 -8 3
-5 6 6 6 11 1 17 -2 13 -5z m-80 -20 c-3 -3 -12 -4 -19 -1 -8 3 -5 6 6 6 11 1
17 -2 13 -5z m2513 -10 c0 -2 -9 -4 -21 -4 -11 0 -18 4 -14 10 5 8 35 3 35 -6z
m-209 -1897 c-15 -15 -42 -18 -35 -4 3 7 -1 4 -10 -7 -8 -10 -19 -15 -25 -11
-6 3 -11 1 -11 -4 0 -6 -3 -10 -7 -9 -20 4 -43 -17 -43 -38 0 -13 -9 -28 -20
-34 -12 -7 -18 -16 -13 -23 4 -7 -2 -5 -12 3 -11 9 -16 10 -11 3 7 -12 -5 -18
-27 -14 -5 1 -6 -3 -3 -8 4 -5 -5 -22 -20 -38 -14 -15 -22 -21 -18 -13 6 12 3
11 -12 -2 -22 -19 -108 -23 -97 -4 3 6 -2 4 -13 -5 -10 -9 -26 -15 -34 -14
-10 2 -17 -5 -17 -17 -2 -19 -1 -19 11 -3 10 14 15 15 21 5 6 -9 4 -11 -5 -5
-10 6 -12 4 -8 -7 4 -10 0 -15 -10 -15 -31 -1 -62 -15 -62 -29 0 -17 -42 -18
-58 -2 -10 10 -15 10 -21 -1 -5 -7 -13 -11 -19 -7 -6 3 -13 3 -16 -2 -3 -5 3
-9 12 -10 49 -4 354 -1 367 4 13 5 14 -18 10 -176 -5 -192 -11 -250 -27 -250
-5 0 -9 -21 -8 -47 1 -27 1 -50 0 -53 -3 -10 -10 -46 -14 -77 -3 -18 -9 -40
-15 -50 -5 -10 -10 -22 -10 -28 -1 -5 -4 -19 -6 -30 -12 -49 -11 -73 2 -110 8
-22 17 -74 19 -116 l5 -76 -31 -13 c-46 -19 -36 -44 19 -48 33 -3 52 3 83 23
l40 27 -7 172 c-6 154 -5 174 10 189 27 27 27 27 70 -63 15 -34 15 -36 -4 -52
-19 -15 -21 -27 -21 -126 0 -62 -6 -128 -13 -153 -14 -45 -57 -99 -80 -99 -7
0 -18 -5 -24 -11 -7 -7 -35 -10 -74 -7 -54 4 -65 8 -88 35 -14 16 -30 37 -36
47 -15 26 -110 28 -132 4 -19 -21 -33 -9 -33 30 0 17 -6 22 -24 22 -34 0 -38
20 -27 131 17 169 14 252 -9 281 -11 15 -20 38 -20 52 0 14 -7 46 -16 72 -9
25 -17 54 -19 63 -9 48 -18 131 -20 171 -1 39 -5 70 -20 152 -5 24 32 91 51
94 22 3 27 11 15 19 -6 3 -11 2 -11 -4 0 -5 -11 -8 -25 -6 -20 2 -25 -2 -25
-21 0 -29 -5 -30 -37 -4 -21 16 -35 19 -81 14 -31 -3 -63 -11 -71 -17 -12 -10
-13 -9 -6 3 6 12 5 13 -5 3 -11 -10 -18 -50 -23 -120 0 -7 -4 -13 -8 -13 -5 0
-8 -12 -7 -27 0 -16 -2 -55 -6 -88 -4 -33 -8 -87 -9 -120 -1 -33 -5 -64 -9
-70 -3 -5 -5 -32 -4 -59 2 -39 -3 -55 -23 -80 -14 -17 -21 -28 -17 -24 15 13
49 -42 50 -80 6 -116 4 -111 40 -126 21 -9 42 -29 57 -55 12 -23 26 -41 31
-41 4 0 8 -18 8 -40 0 -28 -7 -46 -25 -64 -14 -14 -25 -21 -25 -16 0 6 -37 10
-84 10 -79 0 -84 -1 -89 -22 -3 -13 6 -63 20 -113 51 -180 26 -267 -29 -100
-16 50 -34 95 -40 102 -5 6 -10 41 -10 76 -1 53 2 67 20 85 17 17 22 34 22 72
l0 51 -72 -3 -73 -3 -5 -50 c-11 -103 -59 -140 -194 -152 -138 -11 -186 26
-186 145 0 79 6 102 26 102 10 0 14 -14 14 -53 0 -59 11 -74 68 -97 60 -23
206 4 217 41 10 31 -5 103 -25 119 -21 17 -38 70 -23 70 6 0 7 16 4 38 -4 20
-3 60 2 87 4 28 8 57 9 65 1 20 -31 131 -41 144 -8 11 -12 24 -27 111 -5 33
-8 36 -14 20 -7 -19 -8 -18 -13 5 -16 77 -23 140 -14 140 14 0 -2 54 -19 63
-21 12 -17 60 8 81 18 16 36 18 105 17 58 -2 90 2 101 11 9 7 13 8 9 2 -4 -7
0 -14 8 -18 8 -3 17 0 21 6 5 7 2 8 -6 3 -9 -6 -12 -4 -8 6 4 10 -1 16 -16 17
-36 4 -51 7 -65 16 -11 7 -12 6 -6 -5 8 -12 6 -12 -8 0 -16 12 -22 8 -18 -12
1 -5 -3 -6 -9 -2 -6 3 -8 11 -5 16 4 5 1 9 -5 9 -6 0 -8 5 -5 10 4 6 11 7 17
4 7 -4 8 -2 4 5 -4 6 -12 9 -17 6 -5 -4 -9 0 -10 7 0 10 -2 10 -6 -1 -4 -9 -8
-10 -12 -2 -4 6 -16 12 -28 14 -11 1 -38 16 -59 32 -20 16 -35 24 -31 18 3 -5
0 -10 -8 -10 -8 0 -12 4 -9 9 8 13 -45 60 -59 52 -8 -5 -8 -2 2 9 7 9 17 15
20 12 4 -2 8 2 8 10 0 8 -4 12 -8 9 -4 -2 -9 4 -12 13 -3 14 -6 12 -15 -9 -6
-16 -15 -28 -18 -28 -4 0 -5 3 -1 6 12 12 -31 45 -62 48 -33 2 -50 12 -26 15
36 4 319 -5 375 -13 25 -3 190 -9 367 -12 260 -5 351 -3 475 10 220 24 322 37
333 45 6 4 25 8 44 10 19 2 44 6 55 11 27 10 51 1 37 -13z m-1550 -808 c36
-25 39 -69 7 -99 -23 -21 -38 -24 -76 -13 -49 13 -51 92 -3 118 34 19 38 19
72 -6z m2344 -40 c15 -28 15 -32 0 -49 -9 -10 -34 -22 -56 -25 -21 -4 -41 -11
-45 -16 -3 -5 -19 -9 -36 -9 -27 0 -30 3 -24 23 3 12 6 30 6 40 0 15 5 17 29
12 22 -5 32 -2 40 12 6 10 11 12 11 6 0 -25 30 -13 30 12 0 35 26 32 45 -6z
m-3652 -41 c-9 -10 -32 -21 -52 -24 -20 -4 -45 -13 -56 -20 -29 -20 -55 -18
-55 6 0 19 29 31 133 56 15 3 27 11 27 18 0 6 5 4 10 -4 6 -10 4 -20 -7 -32z
m857 -3 c-6 -7 -33 -19 -61 -25 -27 -7 -52 -16 -55 -21 -3 -5 -14 -9 -25 -9
-15 0 -20 6 -17 22 2 18 15 25 73 40 39 10 72 23 74 29 2 7 7 5 13 -5 6 -11 6
-22 -2 -31z m3224 -2 c-11 -8 -38 -19 -62 -25 -23 -6 -45 -14 -48 -19 -9 -16
-54 -10 -54 6 0 19 27 32 112 54 64 17 88 10 52 -16z m-3640 13 c-3 -8 -17
-18 -32 -24 -15 -5 -43 -15 -62 -22 -68 -24 -80 -24 -80 -1 0 16 11 23 58 36
31 9 62 18 67 20 27 9 54 4 49 -9z m1426 -57 c0 -15 -18 -19 -23 -6 -3 8 1 14
9 14 8 0 14 -4 14 -8z m-1250 -34 c0 -8 4 -15 8 -15 5 0 16 -19 25 -41 14 -37
15 -44 2 -62 -11 -16 -15 -51 -15 -129 0 -59 -4 -109 -9 -112 -4 -3 -11 -21
-14 -40 -10 -65 -82 -116 -163 -116 -94 0 -137 47 -136 151 0 69 13 109 36
109 9 0 11 -14 8 -56 -4 -52 -3 -58 24 -80 38 -31 101 -32 156 -1 l40 22 -6
177 c-4 151 -3 180 10 193 20 19 34 19 34 0z m3234 -19 c8 -18 19 -37 25 -40
17 -11 13 -40 -9 -59 -17 -15 -20 -29 -20 -129 0 -174 -13 -208 -94 -248 -74
-36 -152 -23 -196 33 -20 25 -24 41 -23 87 1 60 26 135 42 126 5 -4 7 -30 5
-59 -5 -57 12 -88 59 -106 27 -11 99 2 123 22 45 37 44 33 37 160 -3 67 -10
124 -15 125 -4 2 -8 22 -8 44 0 29 6 45 23 59 30 25 35 24 51 -15z m170 -28
c3 -29 6 -112 6 -185 0 -116 -3 -136 -22 -172 -12 -23 -25 -41 -30 -41 -4 0
-8 79 -8 175 0 110 -4 175 -10 175 -22 0 -9 53 18 76 15 13 30 24 33 24 3 0 9
-24 13 -52z m-2554 -54 c0 -9 -9 -18 -20 -21 -26 -7 -26 -33 0 -33 35 0 42
-44 14 -88 -7 -10 -73 -18 -92 -11 -38 14 -27 37 21 42 l42 3 -32 8 c-23 6
-33 14 -33 28 0 24 18 59 39 75 23 18 61 16 61 -3z m-1390 -36 c16 -17 27 -35
24 -40 -3 -5 -25 -6 -49 -3 -44 7 -115 -16 -115 -37 0 -17 55 -57 80 -58 14 0
49 9 78 20 73 28 86 27 77 -7 -9 -40 -30 -56 -113 -87 -77 -30 -147 -88 -137
-114 3 -7 5 -17 5 -21 0 -5 18 -21 41 -37 38 -26 49 -28 160 -32 105 -4 119
-6 119 -22 0 -11 -15 -25 -37 -35 -21 -10 -41 -23 -45 -28 -12 -19 -149 -12
-198 11 -66 30 -83 53 -88 121 -3 47 1 68 21 111 l25 53 -24 37 c-21 31 -24
45 -18 76 9 50 30 82 69 105 47 29 91 25 125 -13z m1031 -10 c36 -31 41 -45
28 -87 -13 -45 -32 -53 -49 -21 -14 27 -55 26 -97 -2 -18 -13 -33 -26 -33 -31
0 -11 59 -35 102 -42 47 -7 68 -28 68 -68 0 -55 -21 -92 -69 -125 -26 -18 -51
-32 -58 -32 -6 0 -24 -7 -39 -15 -49 -25 -103 -19 -156 18 -55 36 -68 69 -67
157 1 66 10 102 27 108 9 3 12 -15 12 -62 0 -68 3 -73 57 -117 30 -24 78 -28
134 -9 27 9 52 20 56 24 3 3 15 6 25 6 10 0 18 4 18 9 0 11 -17 17 -75 27 -61
10 -75 28 -75 95 0 56 1 59 50 107 41 40 81 64 121 71 3 1 12 -5 20 -11z
m3219 -50 c17 -12 30 -27 30 -32 0 -6 9 -22 20 -36 25 -32 25 -75 0 -102 -17
-18 -29 -21 -104 -19 -111 3 -116 -5 -86 -121 11 -45 25 -89 30 -99 12 -22 13
-89 1 -108 -10 -16 -31 -6 -31 15 0 21 -52 168 -62 175 -5 3 -9 38 -10 78 0
57 3 75 17 85 11 8 19 34 24 74 13 112 88 152 171 90z m-4589 -7 c16 -16 29
-37 29 -45 0 -9 5 -16 10 -16 6 0 10 -37 10 -90 0 -49 -4 -90 -9 -90 -5 0 -13
-12 -19 -27 -22 -62 -101 -117 -154 -108 -41 7 -118 44 -118 56 0 5 19 9 43 9
48 0 117 17 117 29 0 5 18 20 40 35 46 30 44 46 -4 46 -40 0 -93 25 -106 50
-24 45 -3 114 44 150 51 38 79 38 117 1z m3697 -32 c2 -13 8 -29 14 -36 14
-18 -18 -102 -52 -135 -34 -32 -40 -33 -87 -16 -48 18 -117 -17 -138 -69 -28
-69 -143 -119 -213 -93 -68 24 -92 65 -92 155 0 59 16 105 36 105 10 0 12 -11
8 -44 -9 -62 0 -88 37 -108 46 -27 111 -23 160 8 38 24 41 28 36 60 -3 19 -15
48 -27 64 l-21 30 23 29 c29 37 35 38 51 4 15 -34 47 -63 66 -60 8 1 24 20 37
42 20 37 52 56 47 28 -2 -7 2 -24 7 -38 7 -18 17 -25 36 -25 25 0 26 2 21 41
-4 29 -1 49 10 66 19 29 37 25 41 -8z m-2543 -403 l32 -25 13 25 c16 30 50 31
75 4 26 -29 10 -76 -25 -72 -13 1 -31 9 -40 17 -15 14 -19 13 -35 -5 -48 -53
-116 11 -72 68 13 16 15 16 52 -12z"/>
<path d="M3010 1511 c0 -7 -5 -9 -12 -5 -7 5 -8 3 -3 -5 5 -9 10 -10 18 -2 6
6 8 14 4 18 -4 3 -7 1 -7 -6z"/>
<path d="M2828 1443 c7 -3 16 -2 19 1 4 3 -2 6 -13 5 -11 0 -14 -3 -6 -6z"/>
<path d="M2417 1421 c-11 -14 -10 -14 7 -1 18 14 19 13 13 -2 -4 -13 -2 -15
10 -11 12 5 14 3 8 -7 -5 -8 -4 -11 2 -7 6 4 13 15 15 25 4 14 -1 18 -19 18
-13 0 -29 -7 -36 -15z"/>
<path d="M2425 527 c-28 -21 -9 -37 44 -37 63 0 70 10 24 31 -46 22 -45 22
-68 6z"/>
<path d="M1840 901 c0 -24 13 -33 34 -25 27 10 20 44 -9 44 -18 0 -25 -5 -25
-19z"/>
<path d="M4805 520 c-12 -20 7 -30 56 -30 27 0 49 3 49 6 0 26 -91 47 -105 24z"/>
<path d="M237 519 c-18 -10 -18 -12 4 -35 15 -16 34 -24 55 -24 45 0 53 18 20
47 -29 25 -51 28 -79 12z"/>
<path d="M1025 4461 c-3 -5 -2 -12 3 -15 5 -3 9 1 9 9 0 17 -3 19 -12 6z"/>
<path d="M3744 4458 c-4 -7 -3 -8 4 -4 7 4 12 2 12 -3 0 -6 5 -11 10 -11 15 0
12 17 -5 23 -8 4 -17 1 -21 -5z"/>
<path d="M2150 4381 c0 -5 13 -14 30 -21 37 -15 56 -64 40 -105 -14 -36 -7
-42 19 -16 26 26 50 27 57 4 16 -54 36 -79 73 -90 48 -15 97 -2 140 38 33 30
37 52 21 109 -22 80 -159 100 -216 32 -15 -18 -26 -23 -42 -18 -12 4 -22 12
-22 17 0 18 -53 59 -76 59 -13 0 -24 -4 -24 -9z m323 -53 c21 -25 22 -95 2
-122 -14 -18 -18 -19 -62 -5 -43 13 -49 19 -59 54 -13 46 -2 91 24 98 30 8 77
-4 95 -25z"/>
<path d="M2116 4011 c-9 -14 4 -18 86 -25 38 -4 69 -2 72 3 9 15 -3 19 -80 26
-49 5 -74 4 -78 -4z"/>
<path d="M1541 3968 c0 -31 3 -37 8 -24 7 18 3 66 -5 66 -2 0 -4 -19 -3 -42z"/>
<path d="M1563 3970 c0 -25 3 -36 5 -25 l5 20 8 -20 8 -20 1 20 1 20 10 -20
c9 -19 9 -18 5 3 -2 12 0 20 5 16 5 -3 9 -11 9 -19 0 -9 13 -13 42 -12 22 1
36 3 30 5 -7 2 -12 9 -12 15 0 5 3 7 7 4 3 -4 12 -2 19 4 10 8 12 5 8 -17 -4
-21 -2 -25 8 -17 7 6 21 9 30 8 10 -2 21 1 24 6 3 5 0 8 -7 7 -7 -2 -13 8 -13
24 -1 14 -5 30 -10 35 -5 5 -6 3 -2 -4 4 -7 3 -13 -3 -13 -5 0 -11 6 -14 13
-3 9 -8 9 -18 -2 -9 -9 -9 -11 -1 -7 17 10 15 -2 -3 -20 -16 -16 -19 -10 -16
26 1 11 -1 10 -9 -3 -6 -9 -16 -15 -22 -11 -6 4 -5 10 3 15 11 7 10 9 -5 9
-13 0 -16 -5 -12 -17 5 -15 3 -14 -10 2 -13 16 -15 16 -11 3 3 -10 2 -20 -3
-23 -6 -4 -10 0 -10 7 0 10 -2 10 -9 -1 -7 -11 -10 -9 -14 10 l-4 24 -3 -25
-2 -25 -8 25 c-6 20 -7 16 -7 -20z m72 0 c-3 -5 -1 -10 4 -10 6 0 11 6 11 13
0 8 4 7 10 -3 8 -12 10 -12 10 -1 0 8 3 12 6 8 3 -3 1 -14 -5 -24 -7 -12 -10
-13 -11 -4 0 10 -3 11 -14 2 -10 -9 -15 -8 -19 3 -3 8 -3 17 0 20 10 10 15 7
8 -4z m112 -10 c-1 -21 -10 -18 -13 5 -1 8 2 15 6 15 5 0 8 -9 7 -20z"/>
<path d="M4356 4002 c-3 -5 1 -9 9 -9 8 0 12 4 9 9 -3 4 -7 8 -9 8 -2 0 -6 -4
-9 -8z"/>
<path d="M4475 4000 c-5 -8 42 -7 49 1 3 3 -6 5 -20 5 -14 0 -27 -3 -29 -6z"/>
<path d="M4676 3998 c3 -5 10 -6 15 -3 13 9 11 12 -6 12 -8 0 -12 -4 -9 -9z"/>
<path d="M4846 3998 c3 -5 10 -6 15 -3 13 9 11 12 -6 12 -8 0 -12 -4 -9 -9z"/>
<path d="M4996 3998 c3 -5 10 -6 15 -3 13 9 11 12 -6 12 -8 0 -12 -4 -9 -9z"/>
<path d="M1550 3836 c0 -2 7 -7 16 -10 8 -3 12 -2 9 4 -6 10 -25 14 -25 6z"/>
<path d="M1370 3827 c0 -2 6 -10 14 -16 11 -9 16 -9 22 1 4 7 4 10 -1 6 -4 -4
-14 -3 -22 3 -7 6 -13 9 -13 6z"/>
<path d="M1489 2708 c0 -2 -3 -18 -5 -35 -5 -33 9 -46 20 -18 3 8 1 15 -4 15
-5 0 -7 9 -5 20 3 16 -2 29 -6 18z"/>
<path d="M1503 2495 c0 -8 4 -12 9 -9 5 3 6 10 3 15 -9 13 -12 11 -12 -6z"/>
</g>
</svg>
