<?xml version="1.0" standalone="no"?>
<!DOCTYPE svg PUBLIC "-//W3C//DTD SVG 20010904//EN"
 "http://www.w3.org/TR/2001/REC-SVG-20010904/DTD/svg10.dtd">
<svg version="1.0" xmlns="http://www.w3.org/2000/svg"
 width="200.000000pt" height="200.000000pt" viewBox="0 0 200.000000 200.000000"
 preserveAspectRatio="xMidYMid meet">

<g transform="translate(0.000000,200.000000) scale(0.100000,-0.100000)"
fill="#000000" stroke="none">
<path d="M946 1957 c-16 -12 -14 -13 17 -9 29 3 41 -1 62 -23 14 -16 25 -36
25 -46 0 -18 -1 -18 -37 1 -21 11 -44 20 -51 20 -7 0 -15 6 -18 13 -3 8 -10
14 -17 13 -16 0 -51 -36 -35 -36 6 0 8 -3 5 -7 -4 -3 -2 -12 3 -18 7 -9 6 -16
-3 -24 -11 -8 -23 -7 -50 4 -46 19 -62 19 -81 -1 -19 -19 -61 -15 -61 6 0 8
13 18 30 21 30 7 30 7 3 8 -15 0 -33 -6 -42 -14 -8 -8 -28 -15 -44 -15 -16 0
-40 -9 -53 -21 -23 -19 -23 -20 -2 -10 28 14 86 14 78 1 -3 -5 -16 -10 -29
-10 -32 0 -64 -34 -72 -75 -8 -45 -16 -49 -92 -51 -35 -1 -68 -6 -74 -12 -8
-8 -4 -9 13 -6 14 3 20 2 14 -3 -5 -4 -15 -17 -21 -28 -7 -12 -20 -19 -32 -17
-11 2 -36 -4 -56 -12 -30 -12 -36 -20 -36 -45 0 -16 7 -36 15 -44 14 -14 11
-27 -7 -27 -5 0 -6 5 -3 10 3 6 1 10 -4 10 -6 0 -11 -5 -11 -11 0 -6 -17 -37
-38 -69 l-38 -57 25 -1 c14 -1 45 -4 68 -8 40 -6 43 -4 53 21 8 22 7 31 -5 45
-14 16 -11 20 37 58 29 23 77 66 107 97 43 44 60 55 85 55 40 -1 71 -23 62
-46 -6 -15 -8 -16 -24 0 -10 9 -24 16 -30 16 -20 0 -51 -134 -52 -223 0 -26
-5 -40 -17 -44 -55 -20 -71 -91 -36 -158 17 -34 63 -62 73 -45 8 13 30 -33 30
-63 0 -12 -5 -39 -11 -60 -16 -60 -83 -72 -72 -13 6 29 -27 103 -37 85 -6 -8
-22 -4 -59 16 -54 30 -65 46 -28 42 19 -2 22 3 25 35 3 31 0 37 -20 43 -13 4
-35 19 -50 32 -16 16 -33 23 -43 19 -9 -3 -18 0 -21 9 -4 8 -13 15 -21 15 -11
0 -13 -9 -7 -45 4 -28 2 -56 -6 -75 -11 -26 -9 -34 14 -74 l26 -45 -22 -3
c-21 -3 -20 -5 11 -36 18 -18 31 -39 28 -46 -3 -8 1 -17 9 -20 8 -3 20 -19 25
-36 6 -16 15 -30 20 -30 5 0 9 -8 9 -19 0 -10 18 -37 40 -60 22 -22 40 -44 40
-47 0 -8 52 -54 61 -54 3 0 13 -25 23 -55 9 -30 26 -61 36 -68 11 -8 18 -16
15 -18 -2 -3 5 -6 17 -6 32 -3 44 -19 27 -39 -12 -16 -12 -17 2 -12 53 20 161
-215 144 -312 -10 -59 -15 -68 -40 -74 -15 -4 -40 -29 -64 -66 l-40 -60 122 0
123 0 2 31 c1 16 -6 50 -17 73 -25 57 -36 122 -22 131 6 3 11 12 11 18 0 7 -4
6 -10 -3 -9 -13 -10 -13 -10 0 0 8 9 21 20 28 17 10 34 5 117 -33 54 -25 109
-51 123 -58 33 -17 155 -23 145 -7 -4 6 -13 9 -21 6 -7 -3 -20 4 -28 16 -10
13 -21 18 -32 14 -15 -6 -15 -4 -3 11 8 9 9 14 3 10 -6 -4 -20 4 -29 17 -19
25 -45 25 -45 0 0 -8 -5 -14 -11 -14 -6 0 -8 8 -5 18 6 16 5 16 -8 0 -17 -23
-28 -23 -24 -1 2 14 -4 18 -29 17 -17 0 -29 4 -26 9 3 4 -3 7 -13 5 -10 -2
-22 6 -29 18 -5 11 -16 19 -23 16 -6 -2 -13 2 -13 10 -1 7 -2 19 -3 27 0 8 -8
16 -16 18 -13 4 -13 3 0 -6 12 -8 12 -13 3 -22 -10 -10 -15 -6 -24 17 -6 16
-13 23 -16 17 -9 -23 -25 -13 -21 12 3 15 1 22 -5 18 -6 -4 -8 0 -4 10 7 19
-19 37 -43 30 -13 -4 -13 -3 0 6 12 8 5 19 -38 62 -47 46 -51 53 -35 64 15 11
15 13 -5 19 -24 8 -30 44 -10 64 7 7 8 12 2 12 -5 0 -3 4 5 9 9 6 29 4 54 -5
50 -18 89 -18 130 -1 18 8 39 12 47 10 13 -4 13 -3 1 6 -10 6 -21 6 -32 0 -33
-17 -119 -10 -160 13 -35 19 -52 40 -31 37 4 -1 14 -1 22 1 11 1 9 4 -5 9 -12
5 -23 4 -27 -3 -12 -17 -26 12 -25 47 2 29 27 53 27 25 0 -7 15 -19 33 -26 26
-10 29 -14 17 -22 -10 -6 -11 -10 -2 -10 21 0 27 5 23 20 -1 8 0 12 4 8 10
-10 53 35 48 49 -8 21 50 8 58 -13 4 -10 8 -15 8 -10 1 6 7 2 14 -7 11 -15 15
-13 47 14 19 17 29 27 21 23 -9 -4 -12 -2 -9 7 3 8 1 22 -4 32 -7 14 -4 17 19
17 24 -1 26 -2 10 -11 -9 -6 -15 -15 -11 -21 4 -7 9 -6 14 2 9 14 30 5 30 -13
0 -7 -4 -6 -11 3 -9 12 -10 11 -6 -7 3 -16 0 -23 -9 -23 -8 0 -14 -4 -14 -10
0 -5 7 -10 15 -10 8 0 15 -5 15 -11 0 -5 -5 -7 -11 -3 -6 3 -15 0 -20 -7 -6
-10 -9 -11 -9 -1 0 17 -25 15 -40 -3 -7 -8 -16 -12 -21 -9 -5 3 -9 1 -9 -4 0
-5 12 -9 26 -9 17 0 24 4 20 13 -6 16 10 19 19 3 4 -6 13 -8 21 -5 24 9 16 -6
-21 -40 -22 -20 -31 -34 -23 -36 7 -3 19 2 27 9 11 12 15 11 26 -4 11 -15 13
-14 18 13 3 16 5 36 5 44 -1 8 9 35 20 59 12 25 22 51 22 59 0 12 3 12 18 1
15 -12 16 -12 5 2 -7 9 -9 20 -5 24 4 5 1 5 -5 1 -9 -5 -13 1 -13 18 0 14 -6
26 -12 26 -9 0 -8 4 2 10 13 8 12 10 -3 10 -10 0 -16 4 -13 9 3 5 0 8 -7 7 -6
0 -12 4 -12 9 0 6 6 9 15 7 8 -1 5 4 -8 11 -12 7 -20 16 -17 19 4 3 -4 9 -17
13 -13 4 -34 21 -47 36 -13 16 -27 26 -32 23 -5 -3 -9 0 -9 5 0 6 -7 11 -17
11 -9 0 -14 3 -10 6 3 3 -3 15 -14 27 -22 24 -24 33 -7 43 7 4 8 3 4 -4 -4 -7
-2 -12 3 -12 17 0 13 18 -6 30 -16 10 -15 11 5 6 18 -3 21 -2 12 9 -8 10 -5
14 15 19 14 4 25 11 25 17 0 6 -6 7 -12 3 -10 -6 -10 -5 -1 8 7 8 9 19 5 23
-4 5 1 5 11 2 12 -4 17 -1 17 11 1 15 2 15 11 -1 10 -18 12 -18 35 4 13 12 27
19 31 16 3 -4 0 -7 -7 -7 -9 0 -7 -5 6 -16 18 -15 18 -15 -3 -5 -26 13 -37 2
-17 -17 8 -7 14 -9 14 -5 0 4 5 1 10 -7 8 -13 10 -13 10 -1 0 22 20 -1 25 -29
2 -13 -1 -30 -7 -37 -8 -11 -7 -12 6 -7 11 4 16 14 13 25 -3 11 -1 22 5 25 6
4 6 9 -2 14 -7 4 -10 12 -6 18 7 12 46 4 46 -10 0 -5 -4 -6 -10 -3 -5 3 -10 1
-10 -6 0 -7 10 -9 25 -7 14 3 25 1 25 -4 0 -6 7 -8 15 -4 10 4 15 -1 15 -16 0
-17 3 -19 12 -10 20 20 31 14 24 -14 -6 -24 -52 -73 -69 -74 -4 0 -3 10 3 23
7 12 -4 4 -23 -18 -19 -22 -33 -42 -30 -45 3 -3 8 1 10 8 4 10 10 9 25 -5 11
-9 18 -13 17 -8 -1 6 1 18 5 27 6 13 15 16 35 11 24 -6 25 -5 11 13 -9 12 -9
15 -1 7 7 -6 20 -9 28 -6 8 3 -10 -17 -39 -46 -42 -40 -50 -53 -39 -60 12 -8
12 -13 -2 -34 -15 -23 -14 -25 22 -61 45 -44 57 -46 37 -7 -9 16 -18 47 -22
69 -8 48 17 88 74 120 61 33 97 37 137 12 19 -12 36 -28 36 -36 2 -22 3 -26
23 -77 19 -48 29 -53 31 -17 1 10 -5 22 -12 24 -20 8 -11 59 11 62 29 4 31 13
5 40 -22 25 -23 26 -3 16 41 -22 66 -138 44 -198 -8 -21 -7 -31 5 -44 8 -9 15
-24 15 -33 0 -21 10 -21 36 -2 18 14 18 14 -3 8 -20 -4 -23 -1 -23 21 0 15 4
35 10 45 21 40 21 82 0 108 -25 32 -25 62 0 88 10 11 28 30 40 43 11 12 24 21
28 18 4 -3 9 4 9 15 1 11 -2 17 -7 14 -4 -3 -3 9 3 26 10 25 9 33 -3 42 -9 7
-16 29 -16 57 0 25 -10 67 -22 93 -17 37 -19 54 -11 68 5 11 9 43 7 72 -2 40
-7 53 -20 55 -12 2 -18 -3 -18 -16 0 -11 -9 -22 -20 -25 -14 -3 -20 -14 -20
-32 0 -14 -7 -33 -15 -41 -20 -20 -19 -44 3 -72 l18 -23 23 22 23 22 -7 -24
c-10 -35 -56 -100 -66 -93 -15 9 -10 -55 7 -87 8 -17 13 -37 10 -46 -13 -34
-102 51 -121 116 -5 17 -4 21 5 16 16 -10 39 24 40 58 0 66 -49 130 -100 130
-25 0 -38 11 -79 66 -66 88 -116 135 -135 128 -9 -4 -16 -16 -16 -27 0 -11 -4
-20 -9 -20 -32 0 -14 65 23 81 19 9 42 6 112 -14 49 -14 106 -29 128 -33 l39
-7 -5 32 c-5 35 -3 37 18 17 16 -17 18 -44 4 -66 -11 -18 15 -50 42 -50 23 0
71 46 63 60 -3 6 -15 10 -27 10 -14 0 -18 5 -14 16 3 8 2 13 -3 9 -5 -3 -19 8
-30 24 -11 15 -34 34 -51 41 -16 7 -30 16 -30 21 0 5 -5 9 -11 9 -5 0 -7 -4
-4 -10 8 -13 -8 -13 -20 -1 -18 18 -111 18 -100 1 3 -5 2 -10 -2 -10 -5 0 -14
9 -21 20 -11 18 -10 20 10 20 12 0 19 3 15 6 -3 3 -22 6 -43 6 -25 0 -33 3
-23 9 11 7 9 9 -8 9 -12 0 -25 -4 -28 -10 -9 -15 -25 -12 -25 4 0 8 -12 28
-26 45 -28 33 -59 39 -88 18z m-132 -136 c9 -13 -19 -32 -37 -25 -9 3 -13 12
-10 20 6 15 39 19 47 5z m156 -425 c0 -26 -11 -42 -27 -40 -7 1 -17 2 -22 3
-16 2 -21 31 -9 50 15 25 58 16 58 -13z m230 -36 c0 -5 -5 -10 -11 -10 -5 0
-7 5 -4 10 3 6 8 10 11 10 2 0 4 -4 4 -10z m35 -20 c-3 -5 -12 -10 -18 -10 -7
0 -6 4 3 10 19 12 23 12 15 0z m-528 -14 c0 -8 -6 -12 -14 -9 -7 3 -10 9 -7
14 8 14 21 11 21 -5z m883 -36 c0 -5 -2 -10 -4 -10 -3 0 -8 5 -11 10 -3 6 -1
10 4 10 6 0 11 -4 11 -10z m-790 -86 c0 -8 -4 -12 -10 -9 -5 3 -10 10 -10 16
0 5 5 9 10 9 6 0 10 -7 10 -16z m0 -37 c0 -8 -7 -14 -15 -14 -16 0 -19 9 -8
20 11 11 23 8 23 -6z m430 -1 c0 -2 -7 -7 -16 -10 -8 -3 -12 -2 -9 4 6 10 25
14 25 6z m-140 -36 c0 -5 -5 -10 -11 -10 -5 0 -7 5 -4 10 3 6 8 10 11 10 2 0
4 -4 4 -10z m-202 -77 c-15 -2 -42 -2 -60 0 -18 2 -6 4 27 4 33 0 48 -2 33 -4z
m25 -36 c18 -8 39 -22 47 -32 14 -18 14 -18 -11 -2 -23 16 -28 16 -39 2 -7 -8
-15 -13 -19 -11 -9 5 -131 -13 -144 -21 -18 -11 -37 -12 -37 -2 0 5 -9 9 -20
9 -28 0 -16 23 22 39 71 32 150 39 201 18z m-50 -84 c4 -3 -1 -15 -10 -26 -17
-20 -17 -20 2 -14 17 6 17 4 -4 -13 -13 -11 -26 -18 -30 -15 -3 3 -1 9 5 13 5
4 9 19 9 35 -1 25 13 35 28 20z m124 -25 c-3 -8 -6 -5 -6 6 -1 11 2 17 5 13 3
-3 4 -12 1 -19z m-447 2 c0 -5 -4 -10 -10 -10 -5 0 -10 5 -10 10 0 6 5 10 10
10 6 0 10 -4 10 -10z m226 -25 c9 -8 11 -15 6 -15 -5 0 -15 7 -22 15 -7 8 -9
15 -6 15 4 0 14 -7 22 -15z m-179 -59 c-3 -8 1 -17 9 -20 8 -3 14 -11 14 -17
0 -7 -8 -5 -19 5 -17 15 -19 46 -4 46 3 0 3 -6 0 -14z m18 -66 c5 8 13 6 26
-6 18 -16 17 -40 -2 -29 -5 4 -9 2 -9 -4 0 -21 -26 1 -38 32 -10 28 -10 30 2
14 10 -12 16 -15 21 -7z m65 -50 c0 -5 -7 -10 -15 -10 -8 0 -13 -6 -11 -12 1
-7 1 -10 -1 -5 -3 4 -12 7 -21 7 -12 1 -10 5 8 15 30 17 40 18 40 5z m-30 -54
c0 -3 -4 -8 -10 -11 -5 -3 -10 -1 -10 4 0 6 5 11 10 11 6 0 10 -2 10 -4z m465
-426 c3 -6 -1 -7 -9 -4 -18 7 -21 14 -7 14 6 0 13 -4 16 -10z"/>
<path d="M1160 1736 c0 -3 19 -33 42 -67 35 -53 42 -60 48 -44 4 11 1 32 -6
47 -17 32 -84 83 -84 64z"/>
<path d="M1296 1651 c-10 -16 6 -42 32 -52 39 -15 49 5 19 35 -27 27 -42 32
-51 17z"/>
<path d="M498 1545 c-9 -16 -17 -41 -19 -55 -3 -31 10 -80 21 -80 10 0 23 95
18 135 l-3 30 -17 -30z"/>
<path d="M412 1395 c-16 -34 -15 -55 1 -55 21 0 37 22 37 52 0 35 -23 37 -38
3z"/>
<path d="M1015 1172 c-6 -4 -10 -17 -9 -30 2 -37 11 -36 16 2 2 20 4 36 3 36
0 0 -5 -4 -10 -8z"/>
<path d="M1213 1074 c-17 -9 -34 -22 -37 -30 -3 -9 -1 -12 4 -9 6 3 10 1 10
-5 0 -6 4 -8 10 -5 5 3 15 -3 22 -15 7 -11 20 -20 30 -20 21 0 48 37 41 56 -7
18 8 18 33 -1 33 -25 52 -18 24 9 -14 13 -31 21 -37 18 -7 -2 -13 1 -13 7 0
16 -50 13 -87 -5z"/>
<path d="M990 1039 c0 -5 5 -7 10 -4 6 3 10 8 10 11 0 2 -4 4 -10 4 -5 0 -10
-5 -10 -11z"/>
<path d="M1174 999 c-3 -5 6 -9 20 -9 31 0 34 6 6 13 -11 3 -23 1 -26 -4z"/>
<path d="M1455 901 c-3 -5 -2 -12 3 -15 5 -3 9 1 9 9 0 17 -3 19 -12 6z"/>
<path d="M1103 869 c-36 -10 -63 -43 -63 -74 1 -27 41 -70 73 -79 29 -7 35
-24 15 -44 -9 -9 -9 -12 0 -12 6 0 15 7 20 17 7 12 19 15 48 10 33 -4 35 -4
17 5 -28 13 -28 18 -3 65 49 92 0 143 -107 112z m81 -19 c-6 -6 -27 -13 -48
-15 -21 -3 -46 -10 -57 -15 -12 -7 -19 -7 -19 -1 0 6 12 17 28 25 31 17 112
22 96 6z"/>
<path d="M1413 863 c-13 -8 -40 -22 -60 -30 l-38 -14 39 5 c24 3 50 15 65 31
29 28 27 31 -6 8z"/>
<path d="M670 795 c0 -2 6 -8 13 -14 10 -8 14 -7 14 2 0 8 -6 14 -14 14 -7 0
-13 -1 -13 -2z"/>
<path d="M677 666 c-17 -13 -17 -14 0 -35 l18 -21 11 25 c11 23 10 24 -8 14
-18 -9 -18 -9 -8 10 13 24 11 25 -13 7z"/>
<path d="M1090 625 c0 -8 -7 -15 -16 -15 -11 0 -15 -6 -11 -20 4 -15 0 -20
-16 -20 -20 -1 -21 -2 -5 -14 10 -7 15 -16 11 -19 -3 -4 -1 -7 5 -7 7 0 12 5
12 11 0 6 6 9 12 7 25 -9 38 17 27 56 -10 37 -19 47 -19 21z"/>
<path d="M1501 615 c-1 -11 -4 -31 -6 -45 l-6 -25 11 25 c6 13 9 33 7 45 -4
19 -4 19 -6 0z"/>
<path d="M1245 544 c-22 -8 -51 -12 -63 -9 -13 3 -30 1 -38 -5 -7 -7 -17 -9
-23 -6 -5 3 -12 0 -14 -6 -4 -10 -8 -9 -16 2 -10 13 -15 8 -12 -12 0 -5 -7 -8
-17 -8 -18 0 -42 -18 -42 -30 0 -25 115 -35 129 -11 4 7 12 11 17 9 10 -3 80
38 102 59 7 7 23 13 35 13 18 0 19 2 7 10 -19 12 -17 12 -65 -6z m-55 -58 c0
-3 -4 -8 -10 -11 -5 -3 -10 -1 -10 4 0 6 5 11 10 11 6 0 10 -2 10 -4z"/>
<path d="M1396 305 c-18 -28 -20 -35 -7 -35 5 0 14 14 20 30 12 36 9 38 -13 5z"/>
<path d="M1370 249 c0 -5 5 -7 10 -4 6 3 10 8 10 11 0 2 -4 4 -10 4 -5 0 -10
-5 -10 -11z"/>
<path d="M1337 225 c-9 -9 -19 -16 -22 -15 -5 0 -7 -8 -2 -12 5 -5 50 32 45
37 -3 3 -13 -1 -21 -10z"/>
<path d="M1517 205 c-43 -7 -80 -15 -82 -17 -2 -2 2 -45 7 -95 l11 -93 228 0
c126 0 229 2 229 4 0 19 -36 80 -64 109 -40 41 -89 68 -165 91 -62 18 -60 18
-164 1z"/>
</g>
</svg>
