<?xml version="1.0" standalone="no"?>
<!DOCTYPE svg PUBLIC "-//W3C//DTD SVG 20010904//EN"
 "http://www.w3.org/TR/2001/REC-SVG-20010904/DTD/svg10.dtd">
<svg version="1.0" xmlns="http://www.w3.org/2000/svg"
 width="225.000000pt" height="225.000000pt" viewBox="0 0 225.000000 225.000000"
 preserveAspectRatio="xMidYMid meet">

<g transform="translate(0.000000,225.000000) scale(0.100000,-0.100000)"
fill="#000000" stroke="none">
<path d="M0 1125 l0 -1125 1125 0 1125 0 -1 248 c-1 136 -4 237 -6 225 -4 -19
-9 -21 -36 -16 -37 7 -59 23 -39 30 26 10 -2 23 -49 23 -28 0 -62 6 -77 14
-19 10 -41 12 -74 6 -43 -6 -48 -5 -48 12 0 22 -3 22 -41 2 -31 -15 -31 -15
-10 -33 11 -10 18 -21 14 -25 -3 -3 -1 -6 5 -6 6 0 9 -7 6 -15 -8 -19 -26 -20
-22 -1 2 8 -1 15 -7 16 -23 3 -44 33 -35 49 6 13 3 20 -12 30 -11 7 -17 8 -14
2 4 -7 1 -8 -8 -5 -9 3 -16 12 -16 20 0 8 -6 14 -13 14 -16 0 -49 33 -46 46 4
24 -2 44 -11 39 -8 -5 -7 -11 1 -21 24 -29 -9 -12 -52 26 -24 22 -47 40 -51
40 -4 0 -13 10 -19 23 -11 20 -11 21 4 9 23 -20 43 -5 22 18 -14 15 -14 19 0
30 9 7 26 10 42 6 21 -5 24 -4 13 4 -10 6 -11 10 -2 10 6 0 12 6 12 14 0 8
-16 16 -40 20 -48 7 -70 39 -51 74 17 32 13 42 -14 42 -14 0 -25 4 -25 8 0 4
-15 14 -34 20 -38 14 -82 8 -108 -16 -16 -13 -18 -12 -27 9 -5 13 -11 33 -14
44 -3 12 -5 5 -6 -17 -1 -31 -5 -39 -26 -44 -14 -3 -25 -11 -25 -17 0 -5 -9 0
-20 13 -17 20 -20 21 -20 5 0 -29 -25 -1 -45 50 -13 36 -16 70 -13 165 1 66 3
120 2 120 0 0 -15 -7 -32 -16 -46 -22 -78 -16 -75 16 2 14 4 50 5 81 2 31 8
62 14 70 6 8 17 24 23 36 10 19 9 22 -4 17 -10 -4 -15 0 -15 14 0 25 14 36 70
55 40 13 46 19 53 53 5 22 7 84 5 139 -4 87 -9 109 -36 166 -34 71 -89 129
-165 173 -57 34 -138 66 -192 76 l-40 7 40 3 40 3 -40 8 c-34 7 -31 7 20 4 33
-1 54 -1 48 2 -19 7 -16 21 5 26 9 2 -198 5 -460 6 l-478 1 0 -1125z m877
1109 c-3 -3 -12 -4 -19 -1 -8 3 -5 6 6 6 11 1 17 -2 13 -5z m-54 -133 c-2 -6
6 -11 17 -11 17 0 20 -7 20 -39 0 -22 5 -43 10 -46 6 -3 10 1 10 10 0 24 27
29 56 10 20 -13 23 -19 14 -30 -14 -17 -5 -36 13 -29 7 2 20 -9 30 -26 19 -31
36 -39 38 -17 1 6 4 1 8 -13 6 -19 3 -27 -11 -32 -24 -10 -23 -32 1 -25 14 3
17 0 14 -14 -3 -11 1 -29 10 -42 12 -19 12 -24 1 -35 -8 -7 -14 -8 -14 -2 0 5
-6 10 -13 10 -8 0 -19 12 -26 27 -13 27 -26 23 -33 -12 -2 -14 5 -26 24 -37
29 -18 29 -21 32 -138 1 -14 4 -29 7 -35 14 -21 6 -67 -12 -78 -11 -7 -19 -17
-19 -23 0 -6 -9 -19 -21 -30 -22 -19 -22 -38 -1 -115 10 -38 -3 -86 -33 -119
-7 -8 -25 -27 -38 -42 -28 -30 -95 -48 -107 -28 -5 8 -9 8 -13 -4 -4 -9 -3
-15 1 -15 29 5 34 -3 13 -17 -24 -17 -37 -11 -43 20 -5 30 -28 32 -28 2 0 -20
-5 -26 -23 -26 -19 0 -25 -8 -33 -42 -9 -41 -10 -42 -67 -53 -48 -10 -60 -9
-63 2 -2 7 -6 19 -8 27 -3 8 6 24 20 37 25 23 33 59 13 59 -6 0 -9 6 -6 13 4
10 -2 13 -18 9 -15 -2 -31 4 -44 17 -12 12 -32 21 -46 21 -18 0 -25 5 -25 19
0 15 11 21 53 28 28 5 68 8 87 7 19 -1 48 -2 63 -3 19 -1 26 -5 21 -13 -5 -8
-2 -9 12 -4 28 12 48 12 50 1 0 -5 6 -23 13 -39 14 -35 32 -24 37 24 3 27 1
30 -16 25 -15 -5 -18 -3 -14 8 3 8 1 18 -5 21 -6 4 -8 13 -5 20 3 8 -4 16 -17
19 -15 4 -23 1 -26 -14 -4 -15 -14 -19 -47 -19 -65 1 -174 25 -153 34 18 9 23
41 7 51 -20 12 -9 20 32 22 30 2 50 11 70 30 l28 27 30 -35 c16 -18 32 -44 36
-56 3 -12 11 -20 19 -17 8 3 24 -12 39 -38 14 -24 26 -38 27 -33 9 62 5 73
-39 123 -12 13 -22 27 -24 30 -7 16 -65 60 -85 66 -18 6 -20 4 -16 -13 9 -34
-22 -54 -72 -49 -26 3 -54 0 -69 -7 -21 -11 -27 -10 -45 9 -26 27 -26 35 -2
88 11 24 29 80 41 124 l22 81 46 -23 c28 -13 56 -37 69 -58 17 -27 31 -36 60
-41 21 -3 49 -8 63 -10 14 -2 19 -2 11 2 -11 5 -11 7 0 14 12 8 12 10 1 18
-11 7 -11 9 2 14 9 4 23 4 31 1 8 -4 31 -3 50 0 42 8 47 33 8 42 -83 18 -104
26 -117 46 -13 19 -13 22 7 38 l22 18 -30 -5 c-23 -3 -26 -2 -15 6 16 11 17
11 -112 -8 -32 -4 -60 -6 -63 -3 -3 3 -5 18 -5 34 0 15 -2 28 -4 28 -21 0 -36
-17 -36 -39 0 -32 -19 -63 -27 -43 -2 7 -11 19 -20 27 -18 18 -13 60 7 60 19
0 50 31 50 49 0 8 5 18 10 21 6 4 10 15 8 25 -3 20 38 70 58 70 7 0 17 6 21
13 10 17 67 37 105 37 16 0 31 6 34 15 4 8 11 15 18 15 6 1 25 12 41 25 30 25
52 28 48 6z m-183 -11 c0 -5 -2 -10 -4 -10 -3 0 -8 5 -11 10 -3 6 -1 10 4 10
6 0 11 -4 11 -10z m255 -30 c3 -5 1 -10 -4 -10 -6 0 -11 5 -11 10 0 6 2 10 4
10 3 0 8 -4 11 -10z m-484 -23 c-10 -9 -11 -8 -5 6 3 10 9 15 12 12 3 -3 0
-11 -7 -18z m-61 -42 c0 -8 -2 -15 -4 -15 -2 0 -6 7 -10 15 -3 8 -1 15 4 15 6
0 10 -7 10 -15z m31 2 c-6 -8 -22 -38 -36 -68 -14 -30 -23 -43 -20 -29 9 34 9
42 0 65 -6 18 -5 18 7 3 13 -15 15 -13 30 13 10 16 20 29 24 29 3 0 1 -6 -5
-13z m-141 -83 c0 -8 -4 -12 -10 -9 -5 3 -10 10 -10 16 0 5 5 9 10 9 6 0 10
-7 10 -16z m50 -54 c22 -22 24 -29 12 -48 -13 -20 -44 -3 -37 19 4 13 1 19 -9
19 -9 0 -16 7 -16 15 0 21 26 19 50 -5z m393 -147 c-7 -2 -19 -2 -25 0 -7 3
-2 5 12 5 14 0 19 -2 13 -5z m-226 -419 c-9 -9 -28 6 -21 18 4 6 10 6 17 -1 6
-6 8 -13 4 -17z m693 -109 c0 -12 -7 -60 -14 -106 -8 -46 -15 -124 -15 -174 1
-57 -3 -91 -10 -93 -7 -2 -33 -21 -59 -41 -59 -47 -93 -66 -111 -62 -8 1 -10
-2 -5 -10 5 -8 3 -10 -6 -4 -11 7 -10 10 1 19 8 7 14 29 14 57 l0 46 -30 -7
c-17 -4 -39 -3 -50 1 -17 6 -17 8 -2 8 9 1 17 8 17 16 0 8 6 15 14 15 21 0 31
21 15 32 -12 8 -12 10 0 15 9 4 10 8 3 12 -7 4 10 29 40 61 28 30 60 73 70 95
10 22 23 47 28 55 5 8 16 32 25 52 23 51 75 61 75 13z m-690 -13 c0 -5 -7 -9
-15 -9 -8 0 -15 4 -15 9 0 4 7 8 15 8 8 0 15 -4 15 -8z m980 -272 c0 -5 -7
-10 -16 -10 -8 0 -12 5 -9 10 3 6 10 10 16 10 5 0 9 -4 9 -10z m130 -51 c0
-10 -7 -19 -15 -19 -9 0 -15 9 -15 25 0 18 4 23 15 19 8 -4 15 -15 15 -25z
m-420 -3 c0 -3 -4 -8 -10 -11 -5 -3 -10 -1 -10 4 0 6 5 11 10 11 6 0 10 -2 10
-4z m839 -355 c-13 -5 -14 -13 -7 -40 l9 -34 18 26 c19 30 31 26 31 -10 0 -12
6 -23 13 -24 6 0 -1 -6 -17 -13 l-29 -13 34 -12 c34 -12 34 -12 11 -25 -12 -6
-19 -15 -16 -19 4 -4 2 -7 -5 -7 -9 0 -9 -5 0 -22 12 -23 11 -23 -14 1 -15 13
-24 28 -20 34 3 6 1 7 -5 3 -13 -8 -36 30 -27 44 3 5 -1 7 -9 4 -10 -4 -20 3
-27 20 -7 14 -15 26 -19 26 -4 0 -6 10 -5 23 4 32 4 33 14 19 7 -11 9 -11 14
2 4 9 2 16 -3 16 -6 0 -10 3 -10 8 0 4 19 6 43 3 24 -2 35 -6 26 -10z m137
-16 c-26 -19 -56 -19 -56 0 0 11 11 15 38 15 35 -1 36 -2 18 -15z m-1084 -37
c12 -7 29 -19 37 -26 12 -12 12 -15 0 -23 -8 -5 -18 -9 -22 -9 -5 0 -23 -11
-41 -25 -60 -45 -78 -24 -23 26 27 25 29 31 17 39 -27 17 -44 7 -54 -33 -5
-19 -12 -27 -24 -25 -29 6 -27 40 4 65 32 25 73 29 106 11z m99 -78 c4 -14 7
-19 8 -11 1 8 4 12 7 9 3 -4 14 2 25 13 10 10 26 19 34 19 20 0 19 -29 0 -36
-9 -4 -20 -15 -26 -26 -7 -12 -7 -18 -1 -14 5 3 15 -1 22 -9 9 -10 9 -15 1
-15 -6 0 -11 -4 -11 -9 0 -5 8 -7 19 -4 33 8 33 -15 0 -38 l-31 -22 6 24 c4
15 -1 10 -14 -13 -24 -45 -34 -52 -49 -35 -8 10 -3 22 19 48 16 19 29 40 30
47 0 25 -21 10 -60 -43 -40 -54 -60 -64 -89 -46 -12 8 -12 12 -2 25 8 9 21 16
31 16 10 0 29 15 44 34 29 39 36 67 11 46 -8 -7 -24 -10 -35 -7 -11 3 -20 1
-20 -3 0 -5 7 -10 16 -12 13 -3 13 -6 1 -22 -11 -15 -17 -17 -35 -7 -26 14
-28 48 -4 77 39 49 92 56 103 14z m119 -8 c0 -5 -9 -17 -20 -27 -19 -18 -20
-17 -20 2 0 11 3 23 7 26 9 10 33 9 33 -1z m900 -2 c0 -5 -15 -10 -34 -10 -19
0 -38 5 -41 10 -4 6 10 10 34 10 23 0 41 -4 41 -10z m-97 -37 c-4 -11 -3 -14
5 -9 8 5 10 -2 6 -22 -8 -40 9 -68 46 -75 18 -4 30 -13 30 -22 0 -8 7 -15 15
-15 12 0 11 6 -5 35 -23 41 -24 45 -10 45 6 0 10 -7 10 -15 0 -11 7 -14 25 -9
30 7 45 -18 27 -47 -7 -10 -12 -26 -12 -34 0 -9 -4 -13 -10 -10 -5 3 -10 -1
-10 -9 0 -10 -6 -13 -16 -9 -9 3 -14 13 -11 24 6 22 3 23 -23 9 -17 -9 -21 -6
-26 17 -7 26 -13 36 -41 68 -7 7 -10 21 -7 29 3 9 0 23 -7 32 -10 13 -10 17 2
25 19 12 19 12 12 -8z m97 -13 c0 -26 -3 -29 -18 -21 -9 5 -26 19 -36 30 -19
21 -19 21 17 21 34 0 37 -2 37 -30z m-324 -73 c-1 -42 6 -67 30 -115 18 -33
29 -63 26 -67 -3 -3 -11 3 -16 13 -28 50 -75 91 -104 90 -16 -1 -33 2 -39 5
-5 3 -27 2 -49 -3 -43 -10 -71 3 -44 20 10 7 11 10 3 10 -7 0 -13 11 -13 25 0
37 37 37 117 -1 28 -13 57 -24 62 -24 6 0 11 21 11 50 0 28 4 50 9 50 5 0 8
-24 7 -53z m-541 -7 c17 -19 17 -21 0 -61 -11 -22 -19 -49 -20 -60 -3 -31 -12
-33 -39 -6 -14 15 -26 23 -26 20 0 -3 -7 0 -15 7 -8 7 -15 21 -15 31 0 11 -4
19 -10 19 -5 0 -10 5 -10 11 0 8 4 9 13 0 14 -11 27 -5 27 11 0 5 -6 6 -12 2
-7 -4 -10 -4 -6 0 3 4 10 8 15 8 4 0 19 9 32 19 30 24 44 24 66 -1z m841 -120
c0 -11 -4 -20 -8 -20 -4 0 -8 9 -8 20 0 11 4 20 8 20 4 0 8 -9 8 -20z m83 -14
c-12 -10 -59 -15 -59 -6 0 5 14 10 32 10 17 0 29 -2 27 -4z"/>
<path d="M951 1834 c-6 -20 -7 -42 -3 -48 4 -6 10 9 13 34 8 57 4 63 -10 14z"/>
<path d="M287 1833 c-4 -3 -7 -11 -7 -17 0 -6 5 -5 12 2 6 6 9 14 7 17 -3 3
-9 2 -12 -2z"/>
<path d="M2117 193 c-12 -11 -8 -30 7 -30 8 0 11 8 8 19 -5 20 -6 21 -15 11z"/>
<path d="M1242 178 c-16 -16 -15 -29 2 -22 16 6 30 34 18 34 -5 0 -13 -5 -20
-12z"/>
<path d="M1205 1548 c-15 -12 -34 -36 -41 -54 -18 -42 -18 -49 0 -35 10 8 16
9 21 2 9 -16 45 -33 45 -22 0 5 -11 23 -25 39 l-24 29 24 23 c20 19 30 21 61
15 34 -6 36 -5 25 9 -19 22 -53 20 -86 -6z"/>
<path d="M1140 1395 c-7 -9 -11 -17 -9 -20 3 -2 10 5 17 15 14 24 10 26 -8 5z"/>
<path d="M1600 889 c0 -5 11 -9 25 -9 14 0 25 2 25 4 0 2 -11 6 -25 8 -14 3
-25 1 -25 -3z"/>
<path d="M1744 819 c-11 -18 18 -89 44 -110 27 -21 52 -25 52 -9 0 6 11 10 24
10 21 0 36 16 36 40 0 5 -15 13 -34 20 -19 6 -47 22 -62 35 -32 27 -49 31 -60
14z"/>
<path d="M1695 790 c-3 -11 -9 -19 -13 -19 -36 5 -39 -7 -12 -39 18 -21 21
-22 35 -9 8 9 15 32 15 51 0 39 -15 48 -25 16z"/>
<path d="M1958 732 c-21 -2 -38 -8 -38 -14 0 -6 -13 -24 -30 -39 -16 -16 -25
-29 -20 -29 6 0 10 -18 10 -40 0 -29 4 -40 15 -40 12 0 14 8 9 40 -4 27 -3 40
5 40 6 0 11 7 11 15 0 8 5 15 10 15 6 0 10 -10 10 -23 0 -31 24 -62 39 -53 13
8 29 44 28 61 -1 6 -7 9 -14 7 -22 -5 -28 30 -8 44 23 17 19 20 -27 16z"/>
<path d="M2218 723 c7 -3 16 -2 19 1 4 3 -2 6 -13 5 -11 0 -14 -3 -6 -6z"/>
</g>
</svg>
