<?xml version="1.0" standalone="no"?>
<!DOCTYPE svg PUBLIC "-//W3C//DTD SVG 20010904//EN"
 "http://www.w3.org/TR/2001/REC-SVG-20010904/DTD/svg10.dtd">
<svg version="1.0" xmlns="http://www.w3.org/2000/svg"
 width="260.000000pt" height="194.000000pt" viewBox="0 0 260.000000 194.000000"
 preserveAspectRatio="xMidYMid meet">

<g transform="translate(0.000000,194.000000) scale(0.100000,-0.100000)"
fill="#000000" stroke="none">
<path d="M0 1930 c0 -6 57 -10 151 -10 l151 0 26 -30 c15 -16 32 -30 38 -30 7
0 14 -7 18 -15 3 -8 13 -15 23 -15 12 0 14 -3 6 -11 -15 -15 -5 -39 15 -39 8
0 12 -3 9 -6 -4 -4 5 -29 20 -56 23 -42 30 -48 50 -43 43 10 23 -3 -29 -21
-114 -37 -336 -159 -430 -237 l-48 -39 0 -293 0 -293 84 2 83 1 23 60 c28 74
93 203 115 230 9 11 3 -7 -13 -40 -49 -99 -119 -303 -142 -415 -25 -118 -34
-380 -14 -400 12 -13 44 -3 44 14 1 13 98 81 105 74 3 -3 -1 -11 -10 -18 -8
-7 -15 -17 -15 -23 0 -6 6 -2 14 8 12 16 18 18 37 8 13 -6 35 -11 49 -11 13
-1 32 -11 42 -24 15 -19 18 -20 18 -5 0 9 -4 17 -10 17 -5 0 -10 6 -10 14 0
11 5 12 25 3 14 -7 25 -21 25 -31 0 -19 1 -18 21 3 33 35 53 24 60 -34 5 -46
6 -44 7 25 l2 76 -60 27 c-33 16 -60 31 -60 35 0 14 189 81 230 81 13 1 13 -1
1 -8 -9 -6 -15 -28 -16 -57 0 -37 -5 -50 -23 -62 -12 -8 -22 -18 -22 -22 0
-10 33 -7 41 4 4 5 12 5 18 1 15 -9 -5 -36 -22 -30 -32 12 -42 -40 -38 -207
l1 -28 33 20 c17 11 44 20 60 20 31 0 37 15 8 23 -17 4 -19 16 -20 106 -2 107
-1 108 49 101 22 -3 25 -9 12 -22 -7 -7 -12 -32 -11 -57 l0 -46 20 55 c10 30
24 59 29 64 16 16 12 26 -10 26 -31 0 -24 15 31 61 70 58 78 83 41 123 -66 71
-79 119 -41 157 18 18 29 20 111 15 90 -6 91 -6 137 -49 44 -41 51 -44 108
-46 40 -1 82 6 120 19 77 26 169 38 215 27 22 -5 48 -22 62 -38 30 -36 57 -37
90 -4 14 14 34 25 45 25 11 0 21 6 24 13 5 15 57 -31 57 -51 0 -10 -4 -9 -16
2 -8 9 -22 16 -30 16 -20 0 -14 -32 6 -37 12 -4 12 -3 1 5 -8 6 -9 12 -3 16 5
3 13 -2 16 -11 7 -17 -9 -33 -33 -33 -11 0 -10 -4 4 -14 23 -17 13 -46 -15
-46 -31 0 -77 26 -82 47 -6 22 -96 49 -111 34 -31 -31 76 -102 177 -119 38 -6
72 -10 75 -8 7 4 31 -20 32 -31 0 -5 7 -7 15 -5 17 4 19 -15 1 -21 -26 -10 21
-39 69 -44 36 -3 45 -2 34 6 -8 6 -26 11 -40 11 -23 1 -24 2 -4 10 11 4 42 4
68 -1 27 -5 60 -6 75 -3 20 4 22 3 11 -5 -26 -18 -5 -21 41 -7 24 8 69 21 99
29 51 14 52 15 20 16 -26 1 -31 4 -20 11 8 5 25 10 38 10 31 0 28 16 -5 25
-16 4 -22 10 -15 12 28 11 10 24 -24 17 -27 -5 -35 -4 -30 5 4 6 2 11 -3 11
-6 0 -11 -7 -11 -15 0 -11 -12 -15 -44 -15 -24 0 -51 -3 -60 -6 -26 -10 -8
-24 32 -25 20 -1 29 -3 19 -6 -9 -2 -15 -8 -13 -11 2 -4 -25 -7 -61 -8 -36 0
-57 3 -46 7 10 4 12 8 6 8 -21 1 -14 21 7 21 30 0 24 19 -7 26 -41 10 -42 11
-27 51 7 21 13 57 14 80 l0 42 -42 4 -43 4 43 1 c47 2 57 19 15 24 -22 2 -29
9 -31 31 -2 15 -8 27 -13 27 -6 0 -7 5 -4 10 3 6 2 10 -3 10 -6 0 -8 -18 -5
-41 l6 -41 -47 3 c-39 4 -46 2 -46 -14 0 -11 -5 -17 -12 -14 -14 5 -13 48 1
57 5 3 19 25 32 50 16 33 24 40 27 27 2 -10 -2 -24 -8 -32 -10 -12 -9 -15 3
-15 21 0 29 39 13 62 -16 23 -3 79 28 118 11 15 17 18 13 8 -5 -13 -1 -18 12
-18 21 0 64 -80 55 -103 -3 -8 2 -20 11 -27 18 -15 20 -36 2 -43 -22 -9 11
-24 43 -19 20 3 29 10 28 21 -4 51 16 68 42 36 11 -13 8 -15 -14 -15 -14 0
-26 -5 -26 -11 0 -8 19 -10 60 -6 61 6 76 -3 46 -27 -8 -6 -17 -21 -21 -34 -7
-23 -6 -23 14 -5 12 9 21 23 21 30 0 20 16 15 48 -14 33 -32 74 -63 82 -63 3
0 20 4 38 9 20 6 32 6 32 0 0 -5 -5 -9 -11 -9 -5 0 -7 -5 -4 -10 4 -7 12 -7
25 0 13 7 21 7 25 0 8 -14 -3 -30 -21 -30 -8 0 -19 -11 -25 -24 -9 -20 -8 -27
9 -44 11 -11 28 -22 38 -24 24 -4 32 -38 9 -38 -12 0 -15 -6 -10 -19 3 -11 1
-22 -5 -26 -12 -7 31 -35 54 -35 6 0 21 -16 34 -35 26 -41 42 -43 76 -13 42
40 55 48 71 48 8 0 15 5 15 10 0 6 -7 10 -17 10 -14 0 -15 2 -1 18 8 9 16 40
17 69 2 47 0 51 -19 46 -14 -4 -20 -1 -20 11 0 9 8 16 20 16 16 0 20 7 20 30
0 33 -17 41 -27 13 -3 -10 -15 -26 -25 -36 -15 -15 -17 -22 -7 -33 17 -21 2
-31 -23 -15 -14 9 -23 10 -31 2 -8 -8 -5 -11 9 -12 11 0 14 -3 6 -6 -10 -4 -9
-9 5 -20 17 -14 17 -14 -4 -10 -18 4 -22 1 -20 -15 1 -12 -4 -23 -10 -25 -7
-3 -13 0 -13 7 0 6 5 8 10 5 6 -3 10 -1 10 4 0 6 -3 11 -7 11 -5 0 -15 5 -23
10 -13 8 -12 11 4 23 18 13 17 14 -12 9 -25 -3 -32 -1 -32 12 0 9 5 16 10 16
6 0 10 4 10 9 0 5 -16 7 -36 5 -26 -3 -35 -1 -31 8 2 7 12 12 21 12 21 -2 20
5 -1 29 -17 18 -17 20 2 33 19 14 20 13 26 -14 3 -16 9 -34 13 -40 9 -16 46
-15 46 0 0 9 3 9 12 0 8 -8 8 -15 -1 -26 -11 -13 -9 -13 18 -3 17 6 34 19 37
29 3 10 10 18 17 18 6 0 1 9 -11 20 -28 26 -35 25 -30 -5 3 -15 1 -25 -7 -25
-6 0 -11 10 -10 23 3 33 -5 40 -26 21 -11 -9 -22 -14 -26 -11 -3 4 -1 7 5 7 7
0 12 11 12 24 0 17 7 26 25 30 14 4 25 11 25 16 0 6 7 10 15 10 35 0 7 -35
-35 -43 -24 -4 -24 -4 3 -6 15 0 46 8 67 19 l40 20 -1 68 0 67 -27 -34 c-68
-87 -134 -137 -175 -132 -15 1 -34 -2 -41 -8 -10 -9 -30 -3 -81 24 -61 33 -67
34 -62 16 3 -12 1 -21 -4 -21 -12 0 -31 39 -24 50 7 11 -43 59 -62 60 -7 0
-13 7 -13 15 0 9 -7 18 -16 22 -9 3 -47 37 -85 74 -68 67 -91 77 -128 55 -17
-11 -23 -3 -15 18 5 12 14 16 30 12 19 -5 23 -1 29 23 8 35 -7 67 -34 74 -15
4 -20 -2 -24 -27 -3 -17 -14 -49 -24 -71 l-18 -40 -5 70 c-5 64 -7 70 -29 73
-18 3 -43 -16 -117 -93 -78 -80 -102 -98 -143 -111 -45 -13 -54 -13 -87 1 -44
18 -94 58 -189 150 -79 76 -75 74 45 -17 101 -77 139 -98 179 -98 30 0 38 5
66 45 14 20 14 20 15 -3 0 -20 4 -22 23 -16 31 9 45 22 90 84 94 129 176 182
196 128 5 -14 10 -17 15 -10 4 6 2 20 -4 31 -14 28 -12 51 5 51 8 0 15 6 15
13 0 8 11 36 25 63 26 51 32 84 15 84 -5 0 -13 -12 -16 -27 -12 -51 -66 -145
-77 -134 -6 6 -5 22 6 48 8 21 19 55 25 76 l10 37 -73 0 -73 0 23 -49 c31 -64
42 -105 26 -100 -7 3 -27 37 -44 77 -28 64 -35 72 -59 72 -27 0 -28 2 -28 47
0 34 -7 58 -27 87 -41 61 -150 185 -202 231 -25 22 -52 46 -59 52 -7 7 -30 13
-50 14 -49 1 -93 7 -99 13 -3 3 -14 1 -25 -5 -14 -7 -23 -7 -33 1 -8 7 -20 8
-27 4 -15 -10 -60 -10 -76 0 -7 4 -12 3 -12 -2 0 -5 -11 -9 -25 -9 -42 0 -28
15 20 23 25 3 45 10 45 14 0 4 7 10 14 13 10 4 13 1 10 -7 -7 -18 14 -30 29
-18 13 11 111 9 140 -3 33 -14 17 11 -23 35 -82 50 -84 48 45 48 130 -1 168
-5 159 -19 -3 -5 -1 -9 5 -9 5 0 11 5 13 11 2 7 36 12 93 13 61 1 90 5 92 14
4 9 -167 12 -831 12 -551 0 -836 -3 -836 -10z m825 -69 c-5 -18 -1 -19 61 -19
45 0 69 -4 75 -13 7 -11 9 -10 9 4 0 9 5 17 10 17 6 0 10 -8 10 -19 0 -15 -7
-18 -45 -17 -25 0 -45 4 -45 9 0 12 -28 8 -33 -5 -4 -10 -8 -10 -15 1 -6 8
-15 10 -23 5 -8 -5 -35 -10 -62 -11 -45 -3 -47 -2 -35 17 14 21 28 27 28 10 0
-19 28 -10 44 15 20 30 30 33 21 6z m-325 -11 c0 -5 -4 -10 -10 -10 -5 0 -10
5 -10 10 0 6 5 10 10 10 6 0 10 -4 10 -10z m540 6 c0 -3 -4 -8 -10 -11 -5 -3
-10 -1 -10 4 0 6 5 11 10 11 6 0 10 -2 10 -4z m-560 -36 c0 -5 -7 -10 -16 -10
-8 0 -12 5 -9 10 3 6 10 10 16 10 5 0 9 -4 9 -10z m482 -206 c72 -35 167 -102
168 -117 0 -4 -20 6 -45 23 -25 17 -80 47 -123 67 -64 29 -80 33 -96 23 -16
-10 -18 -10 -12 5 3 9 6 21 6 26 0 17 32 9 102 -27z m-4 -80 c40 -16 182 -129
182 -144 0 -3 -28 -6 -62 -7 -46 0 -84 -9 -142 -32 -43 -17 -81 -29 -84 -26
-16 16 42 225 63 225 3 0 22 -7 43 -16z m179 -320 c28 -15 64 -40 80 -57 27
-30 27 -30 3 -16 -116 71 -123 74 -195 74 -53 0 -77 -5 -100 -20 -16 -11 -26
-14 -21 -7 15 25 81 51 131 52 35 0 66 -8 102 -26z m763 -195 c0 -11 -4 -17
-10 -14 -5 3 -10 13 -10 21 0 8 5 14 10 14 6 0 10 -9 10 -21z m50 -179 c0 -5
-7 -10 -15 -10 -8 0 -15 5 -15 10 0 6 7 10 15 10 8 0 15 -4 15 -10z m18 -32
c-6 -18 -28 -21 -28 -4 0 9 7 16 16 16 9 0 14 -5 12 -12z m-158 -164 c0 -17
-22 -14 -28 4 -2 7 3 12 12 12 9 0 16 -7 16 -16z m30 -49 c0 -25 -8 -29 -42
-26 -10 1 -18 -2 -18 -8 0 -6 7 -8 15 -5 10 4 15 0 15 -14 0 -12 5 -24 10 -27
6 -3 10 0 10 8 0 13 4 13 25 4 14 -7 25 -15 25 -19 0 -8 -31 -12 -57 -9 -7 1
-13 -2 -13 -7 0 -6 -8 -13 -17 -17 -15 -5 -16 -4 -5 6 6 7 12 21 12 30 0 23
-38 49 -58 41 -14 -5 -15 -4 -2 10 8 9 17 16 20 16 48 -2 62 3 57 22 -3 13 0
20 9 20 8 0 14 -10 14 -25z m50 -27 c0 -7 -4 -19 -9 -26 -7 -11 -10 -10 -15 3
-10 26 -7 35 9 35 8 0 15 -6 15 -12z m-1092 -106 c3 -17 -2 -22 -17 -22 -13 0
-21 -7 -22 -17 0 -13 -2 -14 -6 -4 -3 8 5 22 18 32 l24 19 -30 0 c-26 1 -27 3
-10 10 28 12 39 7 43 -18z m-88 8 c-13 -9 -13 -11 0 -20 13 -8 13 -10 -1 -10
-17 0 -32 24 -22 34 4 3 13 6 22 6 14 0 14 -2 1 -10z m1125 0 c3 -5 1 -10 -4
-10 -6 0 -11 5 -11 10 0 6 2 10 4 10 3 0 8 -4 11 -10z m724 -27 c0 -25 -1 -25
-8 -8 -5 11 -7 23 -4 28 8 14 13 7 12 -20z m-421 1 c-9 -9 -21 -13 -28 -9 -14
9 5 25 30 25 12 0 12 -3 -2 -16z m-238 -14 c0 -5 -4 -10 -10 -10 -5 0 -10 5
-10 10 0 6 5 10 10 10 6 0 10 -4 10 -10z m-1226 -15 c-4 -8 -10 -15 -15 -15
-5 0 -9 7 -9 15 0 8 7 15 15 15 9 0 12 -6 9 -15z m62 -22 c-10 -10 -19 5 -10
18 6 11 8 11 12 0 2 -7 1 -15 -2 -18z m1649 17 c3 -5 2 -10 -4 -10 -5 0 -13 5
-16 10 -3 6 -2 10 4 10 5 0 13 -4 16 -10z m95 -6 c0 -8 -5 -12 -10 -9 -6 4 -8
11 -5 16 9 14 15 11 15 -7z m-1770 -9 c0 -8 -4 -15 -10 -15 -5 0 -10 7 -10 15
0 8 5 15 10 15 6 0 10 -7 10 -15z m1770 -55 c0 -5 -2 -10 -4 -10 -3 0 -8 5
-11 10 -3 6 -1 10 4 10 6 0 11 -4 11 -10z m-2130 -26 c0 -8 -5 -12 -10 -9 -6
4 -8 11 -5 16 9 14 15 11 15 -7z"/>
<path d="M1587 1893 c-10 -3 -29 -10 -43 -18 l-25 -12 23 -6 c13 -4 25 -2 26
3 2 6 10 10 18 10 8 0 14 4 14 9 0 5 10 12 23 14 18 3 18 4 2 4 -11 1 -28 -1
-38 -4z"/>
<path d="M1650 1886 c0 -8 -6 -17 -12 -19 -8 -3 -6 -6 5 -6 11 -1 17 6 17 19
0 11 -2 20 -5 20 -3 0 -5 -6 -5 -14z"/>
<path d="M1334 1875 c34 -18 36 -18 36 -2 0 7 -14 14 -32 15 l-33 2 29 -15z"/>
<path d="M1390 1840 c0 -5 5 -10 10 -10 6 0 10 5 10 10 0 6 -4 10 -10 10 -5 0
-10 -4 -10 -10z"/>
<path d="M1520 1841 c0 -6 5 -13 10 -16 6 -3 10 1 10 9 0 9 -4 16 -10 16 -5 0
-10 -4 -10 -9z"/>
<path d="M1431 1826 c-7 -8 -8 -17 -3 -20 6 -3 13 1 16 10 9 23 2 28 -13 10z"/>
<path d="M2043 1818 c-40 -9 -51 -17 -37 -30 7 -8 84 23 84 34 0 4 -1 8 -2 7
-2 -1 -22 -5 -45 -11z"/>
<path d="M2229 1804 c18 -8 41 -12 50 -8 13 5 11 8 -9 14 -14 5 -36 8 -50 8
-23 0 -22 -1 9 -14z"/>
<path d="M1520 1800 c-8 -5 -27 -6 -42 -3 -15 3 -28 3 -28 0 0 -3 23 -29 51
-57 52 -52 81 -60 93 -22 3 9 14 22 25 29 17 11 19 9 23 -23 3 -29 1 -33 -13
-29 -31 10 -30 -13 1 -28 l30 -15 0 73 0 74 -35 -2 c-19 -1 -35 -6 -35 -11 0
-5 -6 -4 -12 1 -22 17 -44 22 -58 13z m50 -76 c0 -8 -4 -12 -10 -9 -5 3 -10
13 -10 21 0 8 5 12 10 9 6 -3 10 -13 10 -21z"/>
<path d="M1971 1714 c0 -11 3 -14 6 -6 3 7 2 16 -1 19 -3 4 -6 -2 -5 -13z"/>
<path d="M1610 1615 c0 -2 11 -21 25 -41 l25 -37 0 29 c0 21 -7 32 -25 41 -14
6 -25 9 -25 8z"/>
<path d="M1890 1609 c0 -9 7 -22 15 -29 19 -16 19 0 0 26 -12 16 -14 16 -15 3z"/>
<path d="M2386 1584 c-15 -14 -26 -27 -24 -29 2 -2 17 7 33 20 15 14 26 27 24
29 -2 2 -17 -7 -33 -20z"/>
<path d="M2185 1590 c3 -5 8 -10 11 -10 2 0 4 5 4 10 0 6 -5 10 -11 10 -5 0
-7 -4 -4 -10z"/>
<path d="M2316 1538 c-11 -6 -70 -15 -130 -19 l-111 -7 110 2 c81 1 118 6 140
19 17 9 26 16 20 16 -5 0 -19 -5 -29 -11z"/>
<path d="M2010 1530 c8 -5 24 -10 34 -10 26 0 18 6 -19 14 -22 5 -26 4 -15 -4z"/>
<path d="M2400 1357 c0 -19 -50 -77 -66 -77 -8 0 -14 -8 -14 -19 0 -23 -35
-31 -107 -24 -36 4 -53 2 -53 -6 0 -6 -12 -11 -26 -11 -22 0 -25 -2 -14 -15 7
-8 18 -15 24 -15 8 0 12 -29 12 -92 0 -96 -8 -118 -43 -118 -15 0 -15 -2 4
-15 21 -14 24 -14 43 5 12 12 20 33 20 55 0 32 3 35 29 35 16 0 32 6 35 13 5
9 7 9 12 0 18 -39 47 -63 68 -57 14 3 27 -1 35 -10 11 -13 9 -21 -9 -47 -17
-23 -25 -27 -31 -18 -6 10 -12 9 -28 -5 -11 -10 -27 -16 -36 -13 -9 4 -15 1
-15 -8 0 -8 9 -15 20 -15 17 0 20 -7 20 -40 0 -25 -5 -40 -12 -41 -7 0 -3 -5
10 -11 19 -9 22 -17 17 -40 -4 -15 -3 -28 2 -28 4 0 19 -3 32 -7 17 -4 22 -3
17 5 -4 7 -2 12 3 12 6 0 11 6 11 13 0 19 37 40 43 24 3 -7 6 -2 6 11 1 12 6
22 11 22 15 0 12 37 -5 54 -23 23 -18 45 17 74 l31 27 -24 6 c-23 6 -23 7 10
22 27 11 39 12 54 3 15 -9 21 -7 33 8 10 14 17 17 25 9 25 -25 -39 -78 -70
-58 -6 3 -11 -1 -11 -9 0 -9 8 -16 19 -16 12 0 20 -9 23 -25 6 -28 -14 -50
-36 -42 -8 3 -19 0 -24 -6 -13 -16 -14 -97 -2 -97 6 0 10 11 10 24 0 19 4 23
21 19 12 -3 18 -11 15 -19 -3 -8 -2 -14 2 -14 11 1 62 48 62 58 0 5 7 15 15
22 12 10 15 38 15 136 0 117 -1 124 -20 124 -11 0 -20 5 -20 10 0 6 9 10 20
10 11 0 20 7 20 15 0 8 -9 15 -20 15 -11 0 -20 5 -20 11 0 6 9 9 20 6 19 -5
20 0 20 75 0 75 -1 80 -20 75 -10 -3 -21 0 -23 7 -3 8 -13 8 -39 -1 -45 -17
-56 -16 -76 3 -15 16 -10 16 71 12 48 -2 87 -1 87 4 0 4 -45 8 -100 8 -76 0
-100 -3 -100 -13z m47 -43 c-3 -3 -12 -4 -19 -1 -8 3 -5 6 6 6 11 1 17 -2 13
-5z m111 -99 c6 -6 -8 -25 -19 -25 -5 0 -9 6 -9 14 0 8 -6 16 -12 19 -7 2 -2
2 12 0 14 -3 27 -6 28 -8z m-154 -79 c-8 -22 -67 -46 -93 -39 -12 3 -21 14
-21 24 0 16 8 19 55 19 35 0 55 4 55 12 0 6 2 9 5 6 3 -3 3 -13 -1 -22z m3
-282 c4 -11 -1 -22 -12 -30 -22 -17 -25 -17 -45 -4 -13 9 -12 13 9 30 28 24
40 25 48 4z m101 -10 c1 -1 -6 -4 -18 -7 -15 -4 -20 0 -20 15 0 18 2 19 18 7
9 -7 18 -14 20 -15z m-164 -30 c20 -8 21 -34 2 -34 -8 0 -16 -3 -19 -7 -2 -5
-2 -2 0 6 2 7 -5 20 -14 27 -16 12 -16 13 -1 14 9 0 23 -3 32 -6z"/>
<path d="M1950 1299 c0 -31 24 -49 42 -31 14 14 1 49 -22 55 -17 4 -20 0 -20
-24z"/>
<path d="M2292 1305 c-11 -13 -9 -15 8 -15 11 0 20 7 20 15 0 19 -11 19 -28 0z"/>
<path d="M1942 1118 c-9 -9 -7 -17 10 -35 39 -42 72 -22 52 31 -7 19 -45 21
-62 4z"/>
<path d="M2020 1050 c0 -5 5 -10 11 -10 5 0 7 5 4 10 -3 6 -8 10 -11 10 -2 0
-4 -4 -4 -10z"/>
<path d="M2055 1020 c3 -5 8 -10 11 -10 2 0 4 5 4 10 0 6 -5 10 -11 10 -5 0
-7 -4 -4 -10z"/>
<path d="M1976 995 c-3 -9 1 -23 9 -31 13 -14 15 -14 15 0 0 10 9 16 22 16 25
0 14 14 -18 24 -15 5 -24 2 -28 -9z"/>
<path d="M2050 965 c0 -8 -7 -15 -15 -15 -19 0 -20 -24 -2 -39 16 -13 27 -5
27 21 0 10 5 18 10 18 6 0 10 -5 10 -12 0 -6 3 -9 6 -6 8 8 -14 48 -26 48 -6
0 -10 -7 -10 -15z"/>
<path d="M2210 805 c0 -9 40 -45 50 -45 16 0 12 14 -10 33 -19 16 -40 23 -40
12z"/>
<path d="M2132 658 c5 -15 28 -23 28 -10 0 5 -7 13 -16 16 -10 4 -14 1 -12 -6z"/>
<path d="M2558 648 c9 -9 15 -9 24 0 9 9 7 12 -12 12 -19 0 -21 -3 -12 -12z"/>
<path d="M2154 614 c3 -9 6 -20 6 -25 0 -6 5 -7 10 -4 16 10 12 45 -6 45 -11
0 -14 -5 -10 -16z"/>
<path d="M2000 590 c0 -5 -7 -10 -16 -10 -8 0 -12 -4 -9 -10 4 -6 13 -5 25 3
21 13 26 27 10 27 -5 0 -10 -4 -10 -10z"/>
<path d="M1930 565 c0 -8 0 -18 0 -22 0 -20 25 -5 26 15 1 12 -5 22 -12 22 -8
0 -14 -7 -14 -15z"/>
<path d="M2177 567 c-3 -9 -28 -12 -91 -10 -80 3 -86 2 -86 -17 0 -18 6 -20
73 -19 57 1 120 12 145 25 1 1 0 9 -4 18 -7 19 -30 21 -37 3z"/>
<path d="M2245 550 c-3 -5 -2 -10 4 -10 5 0 13 5 16 10 3 6 2 10 -4 10 -5 0
-13 -4 -16 -10z"/>
<path d="M38 501 c-9 -15 -15 -17 -25 -9 -10 8 -13 -3 -13 -56 0 -45 4 -66 12
-66 9 0 9 -3 0 -12 -14 -14 -16 -64 -3 -72 5 -3 12 9 15 28 4 18 17 42 31 52
13 10 22 21 19 26 -3 4 1 6 8 3 10 -4 14 11 16 60 3 64 2 65 -23 65 -14 0 -30
-9 -37 -19z m12 -41 c0 -5 -4 -10 -10 -10 -5 0 -10 5 -10 10 0 6 5 10 10 10 6
0 10 -4 10 -10z"/>
<path d="M1975 500 c3 -5 10 -10 16 -10 5 0 9 5 9 10 0 6 -7 10 -16 10 -8 0
-12 -4 -9 -10z"/>
<path d="M2040 490 c0 -5 9 -10 20 -10 11 0 20 5 20 10 0 6 -9 10 -20 10 -11
0 -20 -4 -20 -10z"/>
<path d="M2320 475 c0 -8 5 -15 10 -15 6 0 10 7 10 15 0 8 -4 15 -10 15 -5 0
-10 -7 -10 -15z"/>
<path d="M914 455 c3 -10 -3 -42 -14 -72 -14 -38 -20 -78 -20 -136 0 -88 -3
-98 -36 -115 -32 -17 -36 -57 -8 -83 13 -13 24 -26 24 -31 0 -4 -195 -9 -432
-11 -238 -1 154 -2 872 -2 718 0 1179 1 1026 2 -243 3 -282 5 -298 20 -10 9
-21 13 -25 10 -3 -4 -1 -7 5 -7 7 0 12 -4 12 -9 0 -12 -219 -11 -226 1 -3 5 0
7 8 6 7 -2 12 3 11 10 -2 6 4 12 12 12 8 0 15 -3 15 -7 0 -5 31 -8 69 -8 38 0
67 3 64 7 -2 5 4 8 14 9 11 0 13 3 5 6 -7 3 -19 0 -26 -7 -9 -7 -17 -7 -20 -1
-3 5 -15 7 -27 4 -12 -4 -25 0 -30 8 -7 11 -9 10 -10 -6 l0 -20 -9 20 -9 20
-1 -20 c-1 -19 -2 -18 -10 2 -11 27 -36 30 -42 5 -7 -24 -60 -22 -64 2 -1 10
-6 21 -10 24 -4 4 -5 0 -2 -9 4 -9 2 -22 -3 -30 -7 -11 -9 -10 -10 6 0 17 -2
17 -7 4 -5 -12 -13 -14 -29 -8 -31 11 -30 38 1 35 39 -5 20 19 -24 31 -22 5
-40 6 -40 2 0 -5 6 -9 14 -9 10 0 13 -11 12 -37 -1 -21 2 -41 7 -44 17 -12
-153 -19 -412 -16 l-254 2 -20 60 c-18 52 -19 68 -9 124 12 72 52 137 98 161
32 16 110 19 163 6 31 -8 33 -8 23 11 -9 16 -25 21 -89 27 -89 7 -162 25 -212
50 -32 17 -34 17 -27 1z m26 -230 c0 -96 -2 -105 -19 -105 -25 0 -27 9 -23
118 3 83 5 92 23 92 18 0 19 -8 19 -105z"/>
<path d="M910 225 c0 -62 4 -94 10 -90 6 3 10 44 10 90 0 46 -4 87 -10 90 -6
4 -10 -28 -10 -90z"/>
<path d="M2273 413 c9 -2 25 -2 35 0 9 3 1 5 -18 5 -19 0 -27 -2 -17 -5z"/>
<path d="M1338 404 c-3 -3 -24 -5 -47 -6 l-40 0 32 -45 c18 -25 39 -56 47 -69
9 -14 25 -24 38 -24 16 0 23 -5 21 -17 -3 -31 1 -35 16 -19 9 9 15 23 13 32
-2 9 3 19 10 22 7 2 12 -2 11 -9 -5 -25 11 -69 25 -69 23 0 29 33 9 50 -34 30
-63 79 -63 110 0 32 -8 38 -28 18 -9 -9 -15 -9 -24 0 -9 9 -8 12 5 12 9 0 17
5 17 10 0 11 -33 14 -42 4z m22 -44 c0 -5 -4 -12 -10 -15 -5 -3 -10 -4 -10 -1
0 2 -3 12 -6 20 -5 12 -2 15 10 10 9 -3 16 -10 16 -14z"/>
<path d="M75 370 c-3 -5 1 -10 9 -10 9 0 16 5 16 10 0 6 -4 10 -9 10 -6 0 -13
-4 -16 -10z"/>
<path d="M1933 353 c9 -2 23 -2 30 0 6 3 -1 5 -18 5 -16 0 -22 -2 -12 -5z"/>
<path d="M78 343 c7 -3 16 -2 19 1 4 3 -2 6 -13 5 -11 0 -14 -3 -6 -6z"/>
<path d="M40 330 c0 -5 5 -10 11 -10 5 0 7 5 4 10 -3 6 -8 10 -11 10 -2 0 -4
-4 -4 -10z"/>
<path d="M80 224 c0 -61 4 -93 10 -89 6 3 10 46 10 96 0 53 -4 89 -10 89 -6 0
-10 -39 -10 -96z"/>
<path d="M555 248 c2 -40 -2 -79 -7 -85 -15 -19 -97 -17 -104 2 -8 19 -24 19
-24 0 0 -8 9 -19 19 -25 28 -14 106 -13 119 3 16 18 20 169 6 174 -8 3 -11
-18 -9 -69z"/>
<path d="M690 224 c0 -61 4 -93 10 -89 6 3 10 46 10 96 0 53 -4 89 -10 89 -6
0 -10 -39 -10 -96z"/>
<path d="M850 245 c0 -65 -3 -76 -21 -85 -36 -20 -64 -9 -67 28 -4 40 -22 33
-22 -9 0 -23 6 -32 27 -40 34 -13 80 -2 93 21 13 25 13 160 0 160 -6 0 -10
-32 -10 -75z"/>
<path d="M1780 231 c0 -50 5 -93 10 -96 6 -4 10 28 10 89 0 57 -4 96 -10 96
-6 0 -10 -36 -10 -89z"/>
<path d="M280 254 c0 -17 22 -14 28 4 2 7 -3 12 -12 12 -9 0 -16 -7 -16 -16z"/>
<path d="M480 245 c0 -8 7 -15 15 -15 21 0 19 -18 -2 -23 -14 -4 -12 -5 5 -6
16 -1 22 5 22 19 0 12 -7 20 -17 20 -15 0 -16 2 -3 10 13 8 12 10 -2 10 -10 0
-18 -7 -18 -15z"/>
<path d="M225 240 c-3 -5 -1 -10 4 -10 6 0 11 5 11 10 0 6 -2 10 -4 10 -3 0
-8 -4 -11 -10z"/>
<path d="M1320 240 c0 -5 5 -10 10 -10 6 0 10 5 10 10 0 6 -4 10 -10 10 -5 0
-10 -4 -10 -10z"/>
<path d="M400 215 c0 -8 4 -15 10 -15 5 0 7 7 4 15 -4 8 -8 15 -10 15 -2 0 -4
-7 -4 -15z"/>
<path d="M447 216 c-3 -8 0 -19 6 -24 9 -8 12 -4 13 14 2 26 -11 33 -19 10z"/>
<path d="M1512 218 c-5 -7 -17 -31 -26 -53 -9 -22 -27 -48 -39 -57 -18 -14
-19 -18 -5 -18 9 0 26 12 37 26 14 18 26 24 40 19 30 -9 61 12 61 42 0 40 -46
68 -68 41z m46 -32 c6 -29 -15 -43 -35 -24 -14 14 -14 20 -3 33 16 19 34 15
38 -9z"/>
<path d="M1610 196 c0 -18 6 -38 13 -44 58 -46 150 3 121 65 -6 15 -8 13 -12
-10 -9 -66 -102 -73 -102 -7 0 16 -4 30 -10 30 -5 0 -10 -15 -10 -34z"/>
<path d="M1975 220 c-3 -5 -2 -10 4 -10 5 0 13 5 16 10 3 6 2 10 -4 10 -5 0
-13 -4 -16 -10z"/>
<path d="M2160 215 c33 -19 50 -18 26 0 -11 8 -27 15 -35 15 -10 -1 -7 -6 9
-15z"/>
<path d="M2290 215 c-14 -8 -20 -14 -15 -14 6 0 21 6 35 14 14 8 21 14 15 14
-5 0 -21 -6 -35 -14z"/>
<path d="M2471 226 c2 -2 15 -9 29 -15 24 -11 24 -11 6 3 -16 13 -49 24 -35
12z"/>
<path d="M1220 197 c0 -23 -17 -47 -32 -47 -4 0 -8 9 -8 19 0 30 -16 33 -28 6
-16 -35 -40 -31 -57 10 -7 17 -9 14 -15 -18 -10 -54 -32 -74 -67 -61 -21 7
-29 18 -34 44 -4 27 -7 31 -13 17 -12 -25 1 -65 25 -77 28 -15 77 -3 94 24 12
19 23 22 67 21 35 -2 59 3 71 13 18 16 24 72 7 72 -5 0 -10 -10 -10 -23z"/>
<path d="M1836 204 c-4 -9 -1 -23 5 -30 6 -7 8 -18 4 -24 -7 -11 14 -13 39 -4
22 9 20 24 -3 24 -28 0 -37 20 -12 27 29 7 27 23 -3 23 -13 0 -27 -7 -30 -16z"/>
<path d="M130 186 c0 -29 17 -44 58 -52 58 -12 112 16 112 57 0 27 -18 24 -22
-3 -7 -48 -128 -46 -128 2 0 11 -4 20 -10 20 -5 0 -10 -11 -10 -24z"/>
<path d="M1260 191 c0 -55 105 -80 158 -39 14 12 16 58 2 58 -5 0 -10 -9 -10
-20 0 -49 -121 -51 -128 -2 -4 27 -22 30 -22 3z"/>
<path d="M2550 179 c0 -16 4 -29 9 -29 5 0 16 -3 25 -6 12 -5 16 1 16 24 0 24
-5 31 -25 34 -22 5 -25 2 -25 -23z"/>
<path d="M30 191 c0 -5 7 -11 15 -15 8 -3 15 -1 15 3 0 5 -7 11 -15 15 -8 3
-15 1 -15 -3z"/>
<path d="M341 187 c-1 -10 -13 -29 -28 -42 -26 -23 -27 -24 -7 -25 23 0 50 48
41 72 -3 8 -6 6 -6 -5z"/>
<path d="M376 176 c11 -29 -5 -63 -31 -70 -14 -4 -25 -11 -25 -16 0 -16 60 11
71 32 13 24 8 60 -9 66 -7 2 -10 -2 -6 -12z"/>
<path d="M1986 168 c7 -10 51 -10 58 0 2 4 -10 8 -29 8 -19 0 -31 -4 -29 -8z"/>
<path d="M2105 170 c8 -13 35 -13 55 0 11 7 5 10 -23 10 -23 0 -36 -4 -32 -10z"/>
<path d="M2312 168 c16 -10 45 -10 51 0 3 4 -10 7 -29 8 -21 0 -30 -3 -22 -8z"/>
<path d="M2426 168 c7 -11 51 -10 59 2 3 5 -9 9 -29 8 -19 -1 -33 -5 -30 -10z"/>
<path d="M116 141 c-3 -5 1 -11 9 -14 9 -4 12 -1 8 9 -6 16 -10 17 -17 5z"/>
<path d="M2372 119 c-34 -13 -26 -19 23 -19 25 0 45 4 45 9 0 13 -43 19 -68
10z"/>
<path d="M85 110 c-3 -5 -1 -10 4 -10 6 0 11 5 11 10 0 6 -2 10 -4 10 -3 0 -8
-4 -11 -10z"/>
<path d="M258 113 c7 -3 16 -2 19 1 4 3 -2 6 -13 5 -11 0 -14 -3 -6 -6z"/>
<path d="M2030 110 c0 -5 18 -10 39 -10 22 0 43 5 46 10 4 6 -12 10 -39 10
-25 0 -46 -4 -46 -10z"/>
<path d="M358 74 c-8 -7 2 -44 12 -44 4 0 5 11 2 25 -5 27 -6 28 -14 19z"/>
</g>
</svg>
